<svg width="56" height="56" viewBox="0 0 56 56" fill="none" xmlns="http://www.w3.org/2000/svg">
<path fill-rule="evenodd" clip-rule="evenodd" d="M40.9162 15.3218C45.0002 16.6138 48.9441 18.8907 52.1051 21.7818C52.1702 21.8413 52.2155 21.9196 52.2344 22.0059C53.1577 26.189 53.1577 30.7429 52.2344 34.9257C52.2154 35.012 52.1702 35.0904 52.1051 35.1501C48.9441 38.041 45.0002 40.318 40.9162 41.61C40.8319 41.6366 40.7415 41.6366 40.6572 41.61C36.573 40.318 32.6291 38.041 29.4681 35.1501C29.403 35.0903 29.3579 35.012 29.3388 34.9257C28.4157 30.7429 28.4157 26.189 29.3388 22.0059C29.3579 21.9196 29.403 21.8413 29.4681 21.7818C32.6291 18.8907 36.573 16.6138 40.6572 15.3218C40.7415 15.2951 40.8319 15.2951 40.9162 15.3218ZM40.7862 16.1817C36.9088 17.4296 33.1676 19.5894 30.1477 22.3246C29.29 26.3066 29.29 30.6261 30.1487 34.6087C33.1684 37.3429 36.909 39.5025 40.7876 40.75C44.665 39.5021 48.4056 37.3422 51.4255 34.6071C52.2835 30.625 52.2835 26.3058 51.4245 22.3229C48.405 19.589 44.6638 17.4296 40.7862 16.1817Z" fill="#193722"/>
<path fill-rule="evenodd" clip-rule="evenodd" d="M29.4681 21.7818C32.6291 18.8907 36.573 16.6138 40.6572 15.3218C40.7414 15.2951 40.8319 15.2951 40.9161 15.3218C45.0001 16.6138 48.9441 18.8907 52.105 21.7818C52.149 21.822 52.1841 21.8709 52.2081 21.9254C52.2321 21.9799 52.2445 22.0388 52.2445 22.0984C52.2445 22.1579 52.2321 22.2169 52.2081 22.2714C52.1841 22.3259 52.149 22.3748 52.105 22.415C48.9441 25.3061 45.0001 27.5831 40.9161 28.8751C40.8319 28.9017 40.7415 28.9017 40.6572 28.8751C36.573 27.5831 32.6291 25.3061 29.4681 22.415C29.4241 22.3748 29.389 22.3259 29.365 22.2714C29.341 22.2169 29.3286 22.1579 29.3286 22.0984C29.3286 22.0388 29.341 21.9799 29.365 21.9254C29.389 21.8709 29.4241 21.822 29.4681 21.7818ZM30.3998 22.0984C33.3743 24.726 37.0157 26.8018 40.7876 28.0151C44.5579 26.8016 48.199 24.726 51.1735 22.0984C48.1988 19.4707 44.5575 17.3949 40.7857 16.1817C37.0152 17.3954 33.3741 19.4709 30.3998 22.0984Z" fill="#193722"/>
<path fill-rule="evenodd" clip-rule="evenodd" d="M40.3577 28.466C40.3601 28.3538 40.4064 28.247 40.4866 28.1686C40.5669 28.0901 40.6746 28.0461 40.7869 28.0461C40.8991 28.0461 41.0068 28.0901 41.0871 28.1686C41.1673 28.247 41.2136 28.3538 41.216 28.466V41.2011C41.2136 41.3133 41.1673 41.4201 41.0871 41.4986C41.0068 41.577 40.8991 41.621 40.7869 41.621C40.6746 41.621 40.5669 41.577 40.4866 41.4986C40.4064 41.4201 40.3601 41.3133 40.3577 41.2011V28.466ZM16.0308 44.2959C14.8918 45.5558 13.5982 46.2452 12.2407 46.2452C10.3911 46.2452 8.65172 44.9506 7.26518 42.6912C5.29527 39.4817 4.00391 34.3047 4.00391 28.466C4.00391 22.6274 5.29527 17.4506 7.26518 14.241C8.65172 11.9817 10.3911 10.687 12.2407 10.687C13.5982 10.687 14.8918 11.3765 16.0308 12.6363C16.1566 12.7756 16.1774 12.9807 16.0819 13.1424C14.0026 16.6583 12.6698 22.2176 12.6698 28.466C12.6698 34.7146 14.0026 40.2737 16.0819 43.7896C16.1284 43.8684 16.1485 43.9601 16.1393 44.0511C16.1301 44.1422 16.0921 44.228 16.0308 44.2959ZM15.1813 43.9466C13.1339 40.3182 11.8114 34.7313 11.8114 28.466C11.8114 22.201 13.1339 16.6138 15.1811 12.9855C14.2833 12.0705 13.2929 11.5452 12.2407 11.5452C10.6428 11.5452 9.19451 12.7381 7.99666 14.6899C6.08979 17.797 4.86228 22.8138 4.86228 28.466C4.86228 34.1182 6.08979 39.1352 7.99666 42.2422C9.19451 44.194 10.6428 45.3869 12.2407 45.3869C13.2929 45.3869 14.2836 44.8618 15.1813 43.9466Z" fill="#193722"/>
<path fill-rule="evenodd" clip-rule="evenodd" d="M15.3431 12.7055C16.9125 10.0519 18.9018 8.51807 21.0241 8.51807C22.5376 8.51807 23.9787 9.28889 25.2482 10.6936C25.3743 10.8328 25.3949 11.038 25.2993 11.1997C22.9563 15.1613 21.4532 21.4251 21.4532 28.466C21.4532 35.5068 22.9563 41.7706 25.2993 45.7325C25.3949 45.8942 25.3743 46.0991 25.2482 46.2386C23.9787 47.643 22.5376 48.4139 21.0241 48.4139C18.9018 48.4139 16.9125 46.8803 15.3431 44.2265C13.204 40.6094 11.8115 34.8946 11.8115 28.466C11.8115 22.0374 13.204 16.3227 15.3431 12.7055ZM16.082 13.1424C14.0027 16.6583 12.6699 22.2176 12.6699 28.466C12.6699 34.7145 14.0027 40.2737 16.082 43.7895C17.4635 46.1259 19.1556 47.5557 21.0241 47.5557C22.2323 47.5557 23.37 46.9493 24.3989 45.8903C22.0879 41.8157 20.595 35.5239 20.595 28.466C20.595 21.4083 22.0879 15.1164 24.3987 11.0419C23.37 9.98288 22.2323 9.37644 21.0241 9.37644C19.1556 9.37644 17.4635 10.806 16.082 13.1424Z" fill="#193722"/>
<path fill-rule="evenodd" clip-rule="evenodd" d="M39.545 40.744C38.4563 44.3744 36.8947 47.2569 35.069 48.9866C33.7918 50.1968 32.3804 50.8537 30.9053 50.8537C28.5335 50.8537 26.3139 49.1347 24.5601 46.1692C22.1574 42.106 20.5947 35.6869 20.5947 28.4658C20.5947 21.2449 22.1574 14.8256 24.5601 10.7626C26.3139 7.79713 28.5335 6.07812 30.9053 6.07812C32.3804 6.07812 33.7918 6.73483 35.069 7.94524C36.8947 9.67496 38.4563 12.5574 39.545 16.1876C39.5761 16.2912 39.5669 16.4027 39.5193 16.4997C39.4717 16.5968 39.3892 16.6724 39.2883 16.7113C35.9521 17.9985 32.7767 19.9433 30.1476 22.3245C29.2899 26.3066 29.2899 30.6258 30.1485 34.6085C32.7771 36.9885 35.9523 38.9333 39.2883 40.2204C39.3892 40.2593 39.4717 40.3348 39.5192 40.4319C39.5668 40.529 39.576 40.6404 39.545 40.744ZM38.6071 40.8746C35.2657 39.5332 32.0963 37.5538 29.4681 35.1501C29.403 35.0903 29.3578 35.012 29.3387 34.9257C28.4156 30.7428 28.4156 26.189 29.3387 22.0059C29.3579 21.9196 29.403 21.8413 29.4681 21.7818C32.0963 19.378 35.2659 17.3984 38.6071 16.0572C37.5776 12.7743 36.1548 10.1562 34.4786 8.56816C33.3792 7.52625 32.1752 6.9365 30.9053 6.9365C28.7873 6.9365 26.8651 8.55127 25.299 11.1995C22.956 15.1612 21.4529 21.425 21.4529 28.4658C21.4529 35.5066 22.956 41.7704 25.299 45.7323C26.8651 48.3803 28.7873 49.9953 30.9053 49.9953C32.1752 49.9953 33.3792 49.4056 34.4786 48.3636C36.1548 46.7754 37.5776 44.1575 38.6071 40.8746Z" fill="#193722"/>
</svg>
