<svg width="56" height="56" viewBox="0 0 56 56" fill="none" xmlns="http://www.w3.org/2000/svg">
<path fill-rule="evenodd" clip-rule="evenodd" d="M41.8416 25.2483L29.1751 32.7403C29.11 32.7788 29.0359 32.7994 28.9602 32.8C28.8846 32.8006 28.8101 32.7812 28.7444 32.7438L15.593 25.2591C15.3951 25.1464 15.2306 24.9833 15.1163 24.7863C15.002 24.5893 14.942 24.3655 14.9424 24.1378C14.9428 23.91 15.0036 23.6865 15.1186 23.4899C15.2337 23.2933 15.3988 23.1308 15.5971 23.0189L28.3157 15.8429C28.512 15.7322 28.7338 15.6749 28.9591 15.6768C29.1844 15.6787 29.4053 15.7397 29.5997 15.8536L41.8375 23.0296C42.0308 23.143 42.1912 23.3048 42.3028 23.4992C42.4143 23.6936 42.4733 23.9137 42.4737 24.1378C42.4741 24.3619 42.416 24.5822 42.3051 24.777C42.1943 24.9718 42.0345 25.1343 41.8416 25.2483ZM41.4047 24.5097C41.469 24.4716 41.5222 24.4174 41.5592 24.3525C41.5961 24.2875 41.6155 24.2141 41.6153 24.1394C41.6152 24.0647 41.5955 23.9913 41.5583 23.9265C41.5211 23.8617 41.4677 23.8077 41.4032 23.7699L29.1654 16.594C29.1007 16.556 29.0271 16.5357 28.952 16.5351C28.8769 16.5344 28.803 16.5536 28.7376 16.5905L16.019 23.7664C15.9529 23.8038 15.8979 23.8579 15.8596 23.9235C15.8213 23.989 15.801 24.0635 15.8009 24.1394C15.8007 24.2153 15.8207 24.2899 15.8588 24.3555C15.8968 24.4212 15.9516 24.4756 16.0175 24.5132L28.9524 31.8747L41.4047 24.5097Z" fill="#193722"/>
<path fill-rule="evenodd" clip-rule="evenodd" d="M18.1048 25.7016L28.9522 31.875L39.3832 25.7053C39.4491 25.6663 39.5243 25.6457 39.6009 25.6455C39.6774 25.6454 39.7527 25.6657 39.8187 25.7045L41.837 26.8879C42.0304 27.0013 42.1908 27.1631 42.3025 27.3575C42.4141 27.5519 42.473 27.772 42.4734 27.9961C42.4738 28.2203 42.4157 28.4406 42.3048 28.6354C42.1939 28.8302 42.0341 28.9926 41.8411 29.1067L29.1747 36.5986C29.1096 36.6371 29.0354 36.6578 28.9598 36.6584C28.8842 36.6591 28.8097 36.6397 28.7439 36.6023L15.5925 29.1176C15.3947 29.0048 15.2303 28.8416 15.1161 28.6447C15.0019 28.4477 14.942 28.2239 14.9424 27.9962C14.9428 27.7685 15.0036 27.545 15.1185 27.3484C15.2334 27.1519 15.3984 26.9893 15.5967 26.8772L17.6817 25.701C17.7463 25.6645 17.8192 25.6454 17.8934 25.6455C17.9675 25.6456 18.0404 25.665 18.1048 25.7016ZM17.8916 26.568L16.0185 27.6248C15.9525 27.6621 15.8976 27.7163 15.8593 27.7819C15.821 27.8474 15.8008 27.9218 15.8006 27.9977C15.8005 28.0736 15.8204 28.1481 15.8584 28.2138C15.8965 28.2795 15.9512 28.3339 16.0171 28.3715L28.952 35.7331L41.4042 28.368C41.4685 28.3299 41.5217 28.2757 41.5586 28.2108C41.5955 28.1458 41.6148 28.0724 41.6147 27.9977C41.6145 27.923 41.5949 27.8497 41.5578 27.7849C41.5206 27.7201 41.4672 27.6661 41.4028 27.6283L39.6026 26.5728L29.1747 32.7406C29.1095 32.7791 29.0354 32.7997 28.9598 32.8003C28.8841 32.8009 28.8097 32.7815 28.7439 32.7441L17.8916 26.568Z" fill="#193722"/>
<path fill-rule="evenodd" clip-rule="evenodd" d="M18.1049 29.5597L28.9522 35.7329L39.3833 29.5632C39.4492 29.5242 39.5243 29.5036 39.6009 29.5035C39.6775 29.5033 39.7527 29.5237 39.8187 29.5624L41.837 30.7458C42.0304 30.8591 42.1909 31.021 42.3025 31.2154C42.4141 31.4097 42.473 31.6299 42.4734 31.854C42.4739 32.0781 42.4157 32.2985 42.3049 32.4933C42.194 32.6881 42.0341 32.8505 41.8412 32.9645L29.6034 40.2029C29.408 40.3185 29.1857 40.3803 28.9587 40.3822C28.7318 40.3842 28.5084 40.3261 28.3112 40.2138L15.5926 32.9755C15.3948 32.8627 15.2304 32.6996 15.1161 32.5026C15.0019 32.3056 14.942 32.0819 14.9424 31.8542C14.9428 31.6265 15.0036 31.403 15.1185 31.2064C15.2335 31.0099 15.3985 30.8473 15.5967 30.7353L17.6818 29.5589C17.7463 29.5224 17.8193 29.5033 17.8934 29.5034C17.9676 29.5036 18.0404 29.523 18.1049 29.5597ZM17.8917 30.4259L16.0186 31.4828C15.9524 31.5201 15.8973 31.5742 15.8589 31.6398C15.8205 31.7053 15.8002 31.7798 15.8 31.8558C15.7999 31.9317 15.8199 32.0064 15.858 32.072C15.8962 32.1377 15.9511 32.1921 16.0171 32.2296L28.7357 39.4679C28.8696 39.544 29.034 39.5427 29.1665 39.4642L41.4043 32.2259C41.4685 32.1878 41.5216 32.1336 41.5585 32.0687C41.5954 32.0038 41.6147 31.9303 41.6145 31.8557C41.6144 31.781 41.5948 31.7077 41.5577 31.6429C41.5205 31.5782 41.4672 31.5242 41.4028 31.4863L39.6026 30.4306L29.1747 36.5985C29.1096 36.637 29.0355 36.6576 28.9598 36.6583C28.8842 36.6589 28.8097 36.6396 28.744 36.6022L17.8917 30.4259Z" fill="#193722"/>
<path fill-rule="evenodd" clip-rule="evenodd" d="M15.346 52.927C13.4678 52.927 11.9455 51.4045 11.9453 49.5265V46.7423C11.9453 46.1381 11.9299 45.6672 11.8654 45.3005C11.8161 45.021 11.7459 44.8146 11.6036 44.6723C11.4612 44.5297 11.2548 44.4597 10.9753 44.4105C10.6086 44.346 10.1377 44.3303 9.53354 44.3303H5.75399C5.34996 44.3303 4.96248 44.1698 4.67677 43.8842C4.39106 43.5985 4.23052 43.211 4.23047 42.807V8.60834C4.23047 5.83012 6.48588 3.57471 9.2639 3.57471H41.5856C43.4636 3.57471 44.9861 5.0972 44.9861 6.97523V9.75963C44.9861 10.3636 45.0017 10.8347 45.0662 11.2012C45.1154 11.4809 45.1855 11.6871 45.328 11.8297C45.4704 11.972 45.6766 12.0422 45.9563 12.0913C46.3228 12.1557 46.7939 12.1714 47.398 12.1714H51.1776C51.5817 12.1714 51.9692 12.3319 52.2549 12.6176C52.5406 12.9033 52.7011 13.2909 52.7011 13.6949V47.8936C52.7011 50.6716 50.4457 52.927 47.6675 52.927H15.346ZM15.346 52.0688H47.6675C49.9719 52.0688 51.8428 50.1978 51.8428 47.8936V13.6949C51.8428 13.5185 51.7727 13.3493 51.6479 13.2246C51.5232 13.0998 51.354 13.0298 51.1776 13.0298H47.398C46.5881 13.0298 45.993 12.9956 45.5561 12.8827C45.1962 12.7896 44.9272 12.6427 44.721 12.4365C44.515 12.2303 44.3679 11.9613 44.2748 11.6014C44.1619 11.1645 44.1279 10.5694 44.1279 9.75963V6.97523C44.1277 5.57119 42.9896 4.43308 41.5856 4.43308H9.2639C6.95966 4.43308 5.08863 6.3039 5.08863 8.60834V42.807C5.0888 42.9834 5.15896 43.1525 5.2837 43.2772C5.40845 43.4019 5.57759 43.472 5.75399 43.4722H9.53354C10.3433 43.4722 10.9384 43.5061 11.3753 43.619C11.7354 43.7121 12.0042 43.8592 12.2104 44.0654C12.4166 44.2714 12.5635 44.5404 12.6566 44.9005C12.7697 45.3374 12.8037 45.9325 12.8037 46.7423V49.5265C12.8037 50.9305 13.942 52.0688 15.346 52.0688Z" fill="#193722"/>
<path fill-rule="evenodd" clip-rule="evenodd" d="M51.6107 12.1714C51.7229 12.1738 51.8296 12.2201 51.9081 12.3004C51.9866 12.3806 52.0305 12.4883 52.0305 12.6006C52.0305 12.7128 51.9866 12.8206 51.9081 12.9008C51.8296 12.981 51.7229 13.0273 51.6107 13.0298H26.9229C26.8107 13.0273 26.7039 12.981 26.6254 12.9008C26.5469 12.8206 26.503 12.7128 26.503 12.6006C26.503 12.4883 26.5469 12.3806 26.6254 12.3004C26.7039 12.2201 26.8107 12.1738 26.9229 12.1714H51.6107ZM31.3313 43.4722C31.5682 43.4722 31.7606 43.6643 31.7606 43.9012C31.7606 44.1381 31.5682 44.3303 31.3313 44.3303H6.64353C6.53203 44.3269 6.42626 44.2801 6.34861 44.2001C6.27096 44.12 6.22754 44.0128 6.22754 43.9012C6.22754 43.7897 6.27096 43.6825 6.34861 43.6024C6.42626 43.5223 6.53203 43.4756 6.64353 43.4722H31.3313Z" fill="#193722"/>
</svg>
