<svg width="56" height="56" viewBox="0 0 56 56" fill="none" xmlns="http://www.w3.org/2000/svg">
<path fill-rule="evenodd" clip-rule="evenodd" d="M40.85 22.0083C41.6806 26.2021 41.6806 30.7301 40.85 34.9239C40.7703 35.3266 40.5595 35.6917 40.2506 35.9621C37.034 38.7784 33.1127 41.0423 29.0654 42.4199C28.6767 42.5522 28.2552 42.5522 27.8665 42.4199C23.8194 41.0423 19.8981 38.7784 16.6813 35.9621C16.3726 35.6915 16.1618 35.3265 16.0819 34.9239C15.2513 30.7299 15.2513 26.2021 16.0819 22.0083C16.1617 21.6056 16.3725 21.2406 16.6813 20.9701C19.8981 18.1538 23.8194 15.89 27.8665 14.5123C28.2552 14.38 28.6767 14.38 29.0654 14.5123C33.1127 15.89 37.034 18.1538 40.2506 20.9701C40.5596 21.2405 40.7703 21.6056 40.85 22.0083ZM40.0081 22.175C39.9652 21.9581 39.8517 21.7616 39.6854 21.6159C36.5516 18.8723 32.7317 16.667 28.789 15.3247C28.5796 15.2534 28.3525 15.2534 28.1432 15.3247C24.2003 16.667 20.3806 18.8723 17.2468 21.6159C17.0803 21.7615 16.9668 21.9581 16.924 22.175C16.1149 26.2606 16.1149 30.6716 16.924 34.7572C16.9669 34.9741 17.0804 35.1707 17.2468 35.3163C20.3806 38.0599 24.2003 40.2653 28.1432 41.6073C28.3525 41.6786 28.5796 41.6786 28.789 41.6073C32.7317 40.2653 36.5516 38.0599 39.6854 35.3163C39.8517 35.1707 39.9652 34.9741 40.0081 34.7572C40.8173 30.6716 40.8173 26.2606 40.0081 22.175ZM29.4679 38.4542V29.5322C29.4679 29.3182 29.6004 29.1262 29.8004 29.0502C32.5557 28.0038 35.226 26.5441 37.616 24.7845C37.689 24.7309 37.7749 24.6974 37.865 24.6875C37.9551 24.6776 38.0462 24.6916 38.1292 24.7281C38.2122 24.7646 38.284 24.8223 38.3376 24.8954C38.3912 24.9685 38.4246 25.0545 38.4344 25.1446C38.7456 28.0351 38.6474 31.0166 38.1404 33.8484C38.1193 33.9668 38.0574 34.074 37.9655 34.1516C35.6586 36.0982 32.9852 37.7367 30.1856 38.9286C30.1072 38.9619 30.0217 38.9752 29.9369 38.9675C29.852 38.9597 29.7705 38.931 29.6994 38.8841C29.6283 38.8371 29.57 38.7732 29.5296 38.6982C29.4892 38.6232 29.468 38.5394 29.4679 38.4542ZM30.3259 37.9309C32.8357 36.8099 35.2283 35.3223 37.3171 33.5752C37.7575 31.0516 37.8648 28.4091 37.6386 25.827C35.3776 27.4299 32.8899 28.7725 30.3263 29.7679L30.3259 37.9309ZM36.9504 22.7783C34.4498 24.7048 31.5903 26.2784 28.6417 27.3427C28.5286 27.3837 28.4046 27.3837 28.2915 27.3427C25.3411 26.2779 22.4819 24.7048 19.982 22.7783C19.9195 22.7301 19.8689 22.6682 19.8341 22.5974C19.7993 22.5266 19.7812 22.4488 19.7812 22.3699C19.7812 22.291 19.7993 22.2131 19.8341 22.1423C19.8689 22.0715 19.9195 22.0096 19.982 21.9614C22.4825 20.0343 25.3423 18.4609 28.2907 17.3966C28.4038 17.3556 28.5277 17.3556 28.6409 17.3966C31.5901 18.4612 34.4501 20.0345 36.9504 21.9614C37.0129 22.0095 37.0636 22.0714 37.0984 22.1422C37.1332 22.2131 37.1514 22.2909 37.1514 22.3699C37.1514 22.4488 37.1332 22.5267 37.0984 22.5975C37.0636 22.6683 37.0129 22.7302 36.9504 22.7783ZM20.8636 22.3699C23.1738 24.0942 25.7796 25.51 28.4666 26.4932C31.1519 25.5104 33.7583 24.0944 36.0689 22.3701C33.7583 20.6453 31.1517 19.2291 28.4658 18.2461C25.7807 19.2289 23.1742 20.6451 20.8636 22.3699ZM19.3158 24.7843C21.7057 26.5441 24.3762 28.0038 27.1316 29.0502C27.2293 29.0873 27.3135 29.1533 27.3729 29.2394C27.4324 29.3255 27.4642 29.4276 27.4642 29.5322V38.4538C27.4641 38.5389 27.4429 38.6228 27.4026 38.6978C27.3622 38.7728 27.3038 38.8367 27.2328 38.8836C27.1617 38.9306 27.0801 38.9593 26.9953 38.967C26.9104 38.9748 26.825 38.9614 26.7465 38.9282C23.9463 37.7363 21.2733 36.0982 18.9677 34.1532C18.8757 34.0757 18.8137 33.9684 18.7926 33.85C18.2848 31.0166 18.1865 28.0344 18.4974 25.1444C18.5072 25.0543 18.5406 24.9683 18.5941 24.8952C18.6477 24.8221 18.7196 24.7644 18.8025 24.7279C18.8855 24.6914 18.9766 24.6774 19.0667 24.6873C19.1568 24.6972 19.2427 24.7306 19.3158 24.7843ZM19.2931 25.8268C19.0674 28.4087 19.1749 31.0518 19.6157 33.5767C21.7036 35.3223 24.0956 36.8095 26.6059 37.9305V29.7677C24.0421 28.7723 21.5543 27.4299 19.2931 25.8268Z" fill="#193722"/>
<path fill-rule="evenodd" clip-rule="evenodd" d="M50.1938 31.47C50.5155 31.4698 50.8331 31.542 51.1231 31.6812C51.4132 31.8204 51.6682 32.023 51.8693 32.2741C52.0704 32.5251 52.2125 32.8182 52.285 33.1316C52.3576 33.445 52.3587 33.7707 52.2883 34.0846L52.2873 34.0896C49.7342 44.8822 40.032 52.9274 28.4655 52.9274C14.9648 52.9274 4.00391 41.9665 4.00391 28.4658C4.00391 16.8993 12.0496 7.19686 22.8446 4.65429C23.1576 4.58357 23.4825 4.58426 23.7952 4.65629C24.108 4.72833 24.4004 4.86986 24.6509 5.0704C24.9002 5.26991 25.1016 5.52282 25.2401 5.81049C25.3786 6.09816 25.4509 6.41326 25.4514 6.73255C25.4615 7.61688 25.4615 8.62521 25.4615 9.41313C25.4615 9.88743 25.3043 10.3483 25.0144 10.7238C24.7245 11.0992 24.3184 11.3679 23.8595 11.4879C16.3785 13.5083 10.8705 20.3489 10.8705 28.4658C10.8705 38.1769 18.7546 46.0611 28.4655 46.0611C36.5827 46.0611 43.4235 40.5528 45.4492 33.0775C45.6943 32.1353 46.5449 31.4778 47.5141 31.4778C48.3018 31.47 49.3097 31.47 50.1938 31.47ZM50.194 32.3281C49.3128 32.3281 48.3078 32.3281 47.5227 32.3362H47.5184C47.2351 32.3361 46.9598 32.4301 46.7356 32.6034C46.5115 32.7766 46.3512 33.0194 46.28 33.2936L46.2789 33.2978C44.1531 41.1422 36.9788 46.9194 28.4655 46.9194C18.2808 46.9194 10.0121 38.6507 10.0121 28.4658C10.0121 19.9525 15.7896 12.7782 23.6358 10.6594L23.6397 10.6584C23.9155 10.5866 24.1597 10.4255 24.334 10.2001C24.5084 9.97471 24.603 9.69787 24.6032 9.41292C24.6032 8.62789 24.6032 7.62326 24.5933 6.74244V6.73749C24.5933 6.54617 24.5504 6.35728 24.4676 6.18477C24.3848 6.01227 24.2644 5.86057 24.1151 5.74087C23.9659 5.62118 23.7916 5.53654 23.6053 5.49323C23.4189 5.44991 23.2252 5.44902 23.0384 5.49062C12.6237 7.94502 4.86228 17.3061 4.86228 28.4658C4.86228 41.493 15.4385 52.0692 28.4655 52.0692C39.6254 52.0692 48.9867 44.3076 51.4512 33.8951C51.493 33.7069 51.492 33.5117 51.4482 33.3239C51.4045 33.1361 51.3191 32.9605 51.1985 32.8101C51.0778 32.6597 50.9249 32.5383 50.7511 32.4549C50.5772 32.3715 50.3868 32.3282 50.194 32.3281ZM31.4697 6.73852C31.4695 6.41623 31.542 6.09804 31.6817 5.80759C31.8213 5.51713 32.0246 5.26187 32.2765 5.06076C32.5283 4.85965 32.8223 4.71787 33.1364 4.64593C33.4506 4.57399 33.7769 4.57375 34.0912 4.64523C43.0772 6.77292 50.1588 13.8545 52.2766 22.8428L52.2776 22.8471C52.3479 23.1597 52.347 23.4841 52.275 23.7964C52.2029 24.1086 52.0616 24.4006 51.8615 24.6508C51.6619 24.9005 51.4087 25.1022 51.1207 25.2409C50.8327 25.3797 50.5172 25.452 50.1975 25.4525C49.314 25.4618 48.3065 25.4618 47.5192 25.4618C47.0451 25.4618 46.5844 25.3047 46.2091 25.0151C45.8338 24.7256 45.5649 24.3198 45.4447 23.8612C43.8221 17.8479 39.0832 13.109 33.075 11.4815C32.6177 11.3624 32.2129 11.095 31.9237 10.7213C31.6345 10.3476 31.4773 9.88855 31.4767 9.41601C31.4697 8.62871 31.4697 7.62182 31.4697 6.73852ZM32.3279 6.73832C32.3279 7.61914 32.3279 8.62335 32.3349 9.40839V9.4121C32.3349 9.99485 32.7281 10.5039 33.2919 10.6511L33.2956 10.6522C39.6013 12.3603 44.5715 17.3305 46.2734 23.6377L46.2742 23.6412C46.3461 23.9167 46.5074 24.1606 46.7327 24.3347C46.958 24.5088 47.2347 24.6033 47.5194 24.6034C48.3042 24.6034 49.308 24.6034 50.1887 24.5944H50.1932C50.3848 24.5944 50.5739 24.5513 50.7465 24.4684C50.9192 24.3854 51.071 24.2647 51.1908 24.1152C51.3105 23.9657 51.3952 23.7912 51.4384 23.6046C51.4816 23.4179 51.4823 23.224 51.4405 23.0371C49.3964 14.3662 42.5651 7.53489 33.8963 5.48114C33.708 5.43915 33.5126 5.44 33.3246 5.48364C33.1367 5.52728 32.9609 5.6126 32.8103 5.73328C32.6598 5.85397 32.5383 6.00694 32.4548 6.1809C32.3712 6.35486 32.3279 6.54535 32.3279 6.73832Z" fill="#193722"/>
</svg>
