<svg width="56" height="56" viewBox="0 0 56 56" fill="none" xmlns="http://www.w3.org/2000/svg">
<path fill-rule="evenodd" clip-rule="evenodd" d="M28.4655 8.3291C39.5792 8.3291 48.6021 17.352 48.6021 28.4655C48.6021 39.5792 39.5792 48.6021 28.4655 48.6021C17.352 48.6021 8.3291 39.5792 8.3291 28.4655C8.3291 17.352 17.352 8.3291 28.4655 8.3291ZM28.4655 9.18727C17.8256 9.18727 9.18727 17.8256 9.18727 28.4655C9.18727 39.1054 17.8256 47.7437 28.4655 47.7437C39.1054 47.7437 47.7437 39.1054 47.7437 28.4655C47.7437 17.8256 39.1054 9.18727 28.4655 9.18727Z" fill="#193722"/>
<path fill-rule="evenodd" clip-rule="evenodd" d="M47.3132 23.6878C47.2614 23.6648 47.2147 23.6317 47.1758 23.5905C47.1369 23.5493 47.1065 23.5009 47.0864 23.4479C47.0663 23.3949 47.0569 23.3384 47.0588 23.2818C47.0606 23.2252 47.0737 23.1695 47.0972 23.1179C47.1207 23.0663 47.1541 23.0199 47.1957 22.9814C47.2372 22.9428 47.2859 22.9129 47.3391 22.8932C47.3923 22.8736 47.4488 22.8647 47.5054 22.8671C47.562 22.8694 47.6176 22.8829 47.669 22.9069C49.6277 23.7992 51.1045 24.8364 51.9777 25.9535C52.6023 26.7524 52.9271 27.5969 52.9271 28.4654C52.9271 29.5003 52.4647 30.5029 51.5836 31.4339C50.7584 32.3061 49.5577 33.1219 48.0445 33.8486C43.6274 35.9697 36.5009 37.3566 28.4655 37.3566C20.4304 37.3566 13.3036 35.9697 8.88675 33.8486C7.37353 33.1219 6.1728 32.3061 5.34739 31.4339C4.46636 30.5029 4.00391 29.5003 4.00391 28.4654C4.00391 27.5969 4.32896 26.7524 4.95353 25.9535C5.82653 24.8364 7.30329 23.7992 9.26228 22.9069C9.36565 22.8609 9.48301 22.8576 9.58881 22.8977C9.6946 22.9378 9.78028 23.0181 9.82719 23.121C9.87409 23.224 9.87843 23.3413 9.83926 23.4475C9.80009 23.5536 9.72057 23.64 9.61803 23.6878C8.10419 24.3775 6.89398 25.1504 6.06486 25.9898C5.2963 26.7678 4.86228 27.5957 4.86228 28.4654C4.86228 29.2988 5.26128 30.094 5.97093 30.844C6.73619 31.6527 7.85514 32.4009 9.25836 33.0749C13.5908 35.1554 20.5842 36.4983 28.4655 36.4983C36.347 36.4983 43.3404 35.1554 47.6729 33.0749C49.0761 32.4009 50.195 31.6527 50.9603 30.844C51.67 30.094 52.069 29.2988 52.069 28.4654C52.069 27.5957 51.6347 26.7678 50.8662 25.9898C50.0373 25.1504 48.8271 24.3775 47.3132 23.6878Z" fill="#193722"/>
<path fill-rule="evenodd" clip-rule="evenodd" d="M23.7758 9.42892C23.7262 9.52973 23.639 9.60705 23.5329 9.64426C23.4269 9.68148 23.3105 9.67564 23.2087 9.62799C23.1069 9.58034 23.0279 9.49468 22.9886 9.38941C22.9493 9.28413 22.9528 9.16764 22.9984 9.06494C23.8825 7.1766 24.9045 5.75587 26.002 4.91645C26.7868 4.31598 27.6147 4.00391 28.4659 4.00391C29.5008 4.00391 30.5034 4.46636 31.4344 5.34739C32.3066 6.1728 33.1223 7.37353 33.8491 8.88675C35.9702 13.3036 37.3571 20.4304 37.3571 28.4655C37.3571 36.5009 35.9702 43.6274 33.8491 48.0445C33.1223 49.5577 32.3066 50.7584 31.4344 51.5836C30.5034 52.4647 29.5008 52.9271 28.4659 52.9271C27.5974 52.9271 26.7528 52.6023 25.954 51.9777C24.8369 51.1045 23.7997 49.6277 22.9074 47.669C22.8834 47.6176 22.8699 47.562 22.8676 47.5054C22.8652 47.4488 22.8741 47.3923 22.8937 47.3391C22.9133 47.2859 22.9433 47.2372 22.9819 47.1957C23.0204 47.1541 23.0668 47.1207 23.1184 47.0972C23.17 47.0737 23.2257 47.0606 23.2823 47.0588C23.3389 47.0569 23.3954 47.0663 23.4484 47.0864C23.5014 47.1065 23.5498 47.1369 23.591 47.1758C23.6322 47.2147 23.6653 47.2614 23.6883 47.3132C24.378 48.8271 25.1508 50.0373 25.9903 50.8662C26.7683 51.6347 27.5962 52.069 28.4659 52.069C29.2993 52.069 30.0945 51.67 30.8445 50.9603C31.6532 50.195 32.4014 49.0761 33.0754 47.6729C35.1559 43.3404 36.4988 36.347 36.4988 28.4655C36.4988 20.5842 35.1559 13.5908 33.0754 9.25836C32.4014 7.85514 31.6532 6.73619 30.8445 5.97093C30.0945 5.26128 29.2993 4.86228 28.4659 4.86228C27.6151 4.86228 26.8043 5.27797 26.0409 6.01542C25.2174 6.81097 24.4573 7.97318 23.7758 9.42892Z" fill="#193722"/>
</svg>
