<svg width="56" height="56" viewBox="0 0 56 56" fill="none" xmlns="http://www.w3.org/2000/svg">
<path fill-rule="evenodd" clip-rule="evenodd" d="M17.1825 14.2731C16.3773 13.175 15.3051 10.018 15.0546 8.03219C14.9716 7.37363 14.9849 6.83249 15.0949 6.50435C15.1751 6.26581 15.3069 6.10575 15.4614 6.01326C16.4844 5.3994 19.902 4.52744 23.0405 4.17004C25.1705 3.92759 27.1717 3.93253 28.2367 4.36491C28.6954 4.55112 29.0647 4.89204 29.3552 5.34955C29.7406 5.9562 29.9878 6.77976 30.147 7.67294C30.3722 8.93547 30.4276 10.3405 30.5178 11.4051C30.5701 12.0223 30.6144 12.5119 30.7477 12.7414C30.9331 13.0601 30.9317 13.3369 30.8392 13.566C30.723 13.8542 30.4134 14.0972 29.9738 14.2192C29.4798 14.3562 28.8147 14.3568 28.2824 14.2202C27.8589 14.1116 27.5192 13.9083 27.3443 13.6585C27.2077 13.4634 27.0779 13.1457 26.9006 12.7877C26.6833 12.3494 26.379 11.8344 25.802 11.4935C25.134 11.0988 24.123 10.9493 22.5282 11.3272C21.6972 11.5242 21.1229 11.7201 20.7315 11.9172C20.4295 12.0696 20.2553 12.2048 20.176 12.3521C20.1041 12.4855 20.1409 12.6155 20.1718 12.7371C20.2132 12.9002 20.2641 13.0572 20.2837 13.2047C20.3241 13.5075 20.2689 13.7843 19.9908 14.0348C19.4463 14.5247 18.7905 14.7854 18.2512 14.7817C17.8056 14.7787 17.4274 14.6073 17.1825 14.2731ZM30.0381 13.2496C30.0296 13.2231 30.0187 13.1973 30.0057 13.1727C29.8728 12.9443 29.7748 12.5282 29.7124 11.9868C29.5886 10.9113 29.5604 9.27206 29.302 7.82373C29.1861 7.17341 29.0246 6.56305 28.778 6.07114C28.5658 5.64803 28.2949 5.31494 27.9139 5.16024C26.9352 4.76288 25.0949 4.80017 23.1375 5.02285C20.1704 5.36067 16.9343 6.15024 15.9284 6.73423C15.9179 6.76616 15.8794 6.88543 15.8693 6.97751C15.8419 7.22759 15.8592 7.55244 15.9061 7.92466C16.1404 9.78107 17.1219 12.7391 17.8746 13.7656C17.9906 13.9236 18.1986 13.945 18.4215 13.9108C18.7472 13.8607 19.1054 13.6768 19.4165 13.3969C19.4622 13.3557 19.4325 13.3048 19.4212 13.2535C19.3903 13.1142 19.3394 12.9669 19.3096 12.8143C19.2605 12.5646 19.2595 12.3053 19.3751 12.0383C19.4789 11.7984 19.6832 11.5409 20.0896 11.2924C20.5204 11.0292 21.217 10.7558 22.3302 10.4919C24.2359 10.0404 25.4403 10.2829 26.2385 10.7546C26.9813 11.1934 27.39 11.8422 27.6696 12.4069C27.8236 12.7175 27.9289 12.997 28.0473 13.1661C28.1275 13.2807 28.3015 13.3392 28.4954 13.3888C28.8884 13.4896 29.3797 13.4933 29.7445 13.3921C29.8186 13.3729 29.8901 13.3451 29.9577 13.3093C29.9868 13.2932 30.0245 13.2615 30.0381 13.2496Z" fill="#193722"/>
<path fill-rule="evenodd" clip-rule="evenodd" d="M18.2966 8.89984C18.1877 8.92699 18.0725 8.91043 17.9757 8.8537C17.8789 8.79697 17.8081 8.70458 17.7786 8.59632C17.749 8.48806 17.763 8.37253 17.8176 8.27449C17.8722 8.17644 17.963 8.10366 18.0706 8.07175C19.2001 7.76379 20.2292 6.47695 26.2236 6.57954C26.4605 6.58366 26.6494 6.77914 26.6455 7.01603C26.6434 7.12984 26.5964 7.2382 26.5145 7.3173C26.4327 7.3964 26.3228 7.43978 26.209 7.43791C20.3895 7.33821 19.3929 8.60073 18.2966 8.89984ZM18.0564 19.8854C18.0038 19.9843 17.9147 20.0587 17.808 20.0928C17.7013 20.1269 17.5856 20.118 17.4854 20.0679C17.3852 20.0178 17.3086 19.9306 17.2718 19.8248C17.2351 19.719 17.2411 19.6031 17.2887 19.5017C17.6051 18.8691 18.4134 18.3098 19.5863 17.981C21.1805 17.5338 23.4711 17.4776 25.9274 18.0916C28.2199 18.6647 30.1337 18.6414 31.4222 18.3825C32.1794 18.2301 32.7049 18.0199 32.907 17.7841C33.0613 17.6043 33.3324 17.5835 33.5122 17.7375C33.692 17.8916 33.7129 18.1629 33.5588 18.3427C33.3472 18.5895 32.9027 18.8614 32.2425 19.0619C30.9008 19.4689 28.5859 19.6409 25.7191 18.9243C23.4332 18.3528 21.3016 18.3914 19.818 18.8073C18.9389 19.0538 18.2935 19.4112 18.0564 19.8854ZM19.0997 25.418C19.0472 25.5168 18.958 25.5913 18.8514 25.6254C18.7447 25.6595 18.6289 25.6505 18.5287 25.6004C18.4286 25.5504 18.3519 25.4631 18.3152 25.3573C18.2784 25.2516 18.2845 25.1356 18.332 25.0342C18.6482 24.4016 19.4567 23.8423 20.6296 23.5136C22.2238 23.0664 24.5143 23.0101 26.9705 23.6242C27.0781 23.6544 27.1696 23.7253 27.2257 23.8219C27.2818 23.9185 27.2981 24.0332 27.271 24.1416C27.2439 24.25 27.1756 24.3435 27.0807 24.4024C26.9857 24.4612 26.8716 24.4808 26.7625 24.4568C24.4766 23.8854 22.3449 23.9239 20.8614 24.34C19.9822 24.5864 19.3368 24.9438 19.0997 25.418Z" fill="#193722"/>
<path fill-rule="evenodd" clip-rule="evenodd" d="M30.0383 13.2494C30.0298 13.2228 30.019 13.1971 30.006 13.1725C29.8558 12.9142 29.7524 12.4101 29.6883 11.7576C29.5594 10.446 29.5316 8.45551 29.1029 6.93713C29.0858 6.87654 29.0822 6.81294 29.0925 6.75081C29.1027 6.68869 29.1265 6.62958 29.1621 6.57767C29.1977 6.52576 29.2443 6.48231 29.2986 6.45042C29.3528 6.41852 29.4135 6.39896 29.4762 6.39311C31.074 6.24479 32.6406 6.27631 33.8922 6.68727C34.7875 6.98142 35.5272 7.46715 36.0308 8.19946C37.6776 10.5947 40.4467 15.2228 41.9206 21.7729C41.9381 21.8506 41.9336 21.9317 41.9077 22.007C41.8817 22.0823 41.8354 22.1489 41.7737 22.1993C41.7121 22.2497 41.6376 22.282 41.5587 22.2925C41.4797 22.3031 41.3994 22.2914 41.3267 22.2589C40.5915 21.9296 39.8414 21.6346 39.0789 21.3745C38.9053 21.3154 38.717 21.3154 38.5433 21.3745C35.2695 22.4889 32.0976 24.3202 29.4955 26.5983C29.3576 26.7191 29.2634 26.8821 29.2277 27.062C28.556 30.4545 28.556 34.1168 29.2279 37.5093C29.2634 37.6893 29.3575 37.8524 29.4955 37.9732C32.0976 40.2513 35.2695 42.0823 38.5433 43.1968C38.717 43.2559 38.9053 43.2559 39.0789 43.1968C41.1621 42.4877 43.2041 41.4881 45.0844 40.268C45.133 40.2364 45.1875 40.2151 45.2445 40.2052C45.3015 40.1952 45.36 40.1969 45.4164 40.2102C45.4727 40.2235 45.5258 40.248 45.5725 40.2823C45.6191 40.3166 45.6583 40.36 45.6878 40.4099C46.5851 41.932 47.4253 42.6884 47.7316 43.0355C48.3834 43.7742 48.6131 44.4902 48.5608 45.1494C48.5119 45.7669 48.211 46.3468 47.7199 46.8628C47.0545 47.5622 46.0285 48.1494 44.8889 48.5637C42.5021 49.4317 34.014 51.7794 27.538 52.6203C24.7008 52.9888 22.2415 53.0589 20.8127 52.6215C18.3964 51.8818 16.4708 50.2007 15.041 48.1082C12.928 45.0157 11.9029 41.0266 11.9454 37.9514C12.0754 28.5861 9.97774 18.222 7.87579 14.8668C6.51233 12.6901 7.08828 8.9264 10.2468 8.65511C11.5783 8.54079 13.5674 8.64852 15.5927 8.45468C15.698 8.44459 15.8034 8.47379 15.8886 8.53668C15.9737 8.59957 16.0326 8.69171 16.0539 8.79539C16.4249 10.6001 17.2318 12.8883 17.8749 13.7654C17.9908 13.9234 18.1989 13.9448 18.4218 13.9106C18.7475 13.8605 19.1057 13.6766 19.4167 13.3966C19.4625 13.3554 19.4328 13.3046 19.4215 13.2533C19.3906 13.114 19.3397 12.9667 19.3098 12.8141C19.2608 12.5644 19.2598 12.3051 19.3753 12.0381C19.4791 11.7981 19.6835 11.5407 20.0899 11.2922C20.5206 11.029 21.2173 10.7556 22.3305 10.4917C24.2361 10.0402 25.4406 10.2827 26.2388 10.7544C26.9816 11.1931 27.3903 11.842 27.6698 12.4066C27.8239 12.7173 27.9292 12.9968 28.0476 13.1659C28.1277 13.2805 28.3018 13.339 28.4956 13.3886C28.8887 13.4893 29.38 13.4931 29.7448 13.3919C29.8188 13.3727 29.8904 13.3449 29.958 13.3091C29.987 13.293 30.0247 13.2613 30.0383 13.2494ZM45.1798 41.225C43.3438 42.3765 41.3683 43.3241 39.3554 44.0094C39.0024 44.1295 38.6196 44.1295 38.2667 44.0094C34.8884 42.8593 31.6154 40.9698 28.9303 38.619C28.6498 38.3733 28.4584 38.0419 28.3858 37.6762C27.6927 34.1753 27.6927 30.396 28.3858 26.8951C28.4582 26.5294 28.6497 26.198 28.9303 25.9525C31.6154 23.6017 34.8884 21.7119 38.2667 20.5619C38.6196 20.4418 39.0024 20.4418 39.3554 20.5619C39.8693 20.737 40.3806 20.929 40.8886 21.1374C39.4087 15.1661 36.8641 10.9266 35.3235 8.6858C34.8204 7.95391 34.0076 7.55305 33.0437 7.34747C32.1434 7.15549 31.1138 7.1353 30.0546 7.2076C30.3298 8.45901 30.4048 9.91723 30.4917 11.0737C30.55 11.8466 30.5906 12.4703 30.748 12.7412C30.9334 13.0598 30.9319 13.3367 30.8394 13.5658C30.7232 13.854 30.4136 14.097 29.974 14.219C29.4801 14.356 28.8149 14.3566 28.2826 14.22C27.8591 14.1114 27.5194 13.9081 27.3446 13.6583C27.208 13.4632 27.0782 13.1455 26.9008 12.7875C26.6835 12.3492 26.3793 11.8342 25.8023 11.4933C25.1343 11.0986 24.1232 10.949 22.5284 11.327C21.6975 11.524 21.1232 11.7199 20.7318 11.917C20.4298 12.0694 20.2555 12.2046 20.1762 12.3519C20.1043 12.4853 20.1412 12.6153 20.1721 12.7369C20.2135 12.9 20.2644 13.057 20.284 13.2045C20.3243 13.5073 20.2691 13.7841 19.991 14.0346C19.4466 14.5245 18.7907 14.7852 18.2514 14.7815C17.8059 14.7784 17.4277 14.6071 17.1827 14.2729C16.5388 13.395 15.7214 11.2016 15.2946 9.34189C13.3995 9.49062 11.5705 9.40286 10.3201 9.51019C7.85334 9.72215 7.53817 12.7111 8.60336 14.4112C10.7484 17.8354 12.9362 28.4049 12.8037 37.9633C12.7632 40.8884 13.7398 44.6824 15.7496 47.624C17.0686 49.5543 18.8348 51.1184 21.0638 51.8007C22.4158 52.2145 24.7429 52.1179 27.4274 51.7691C33.8352 50.9371 42.2339 48.6158 44.5956 47.7572C45.5541 47.4087 46.4281 46.9326 47.0164 46.3542C47.406 45.9713 47.6682 45.5473 47.7051 45.0816C47.7419 44.6165 47.5479 44.1246 47.0881 43.6034C46.7933 43.2693 46.0308 42.571 45.1798 41.225Z" fill="#193722"/>
<path fill-rule="evenodd" clip-rule="evenodd" d="M30.0388 13.2496C30.0303 13.2231 30.0194 13.1974 30.0064 13.1728C29.8571 12.9159 29.7541 12.4166 29.69 11.7696C29.68 11.6687 29.706 11.5676 29.7633 11.4841C29.8207 11.4006 29.9058 11.3401 30.0035 11.3133C30.575 11.1573 31.1378 10.9712 31.6896 10.7559C32.5403 10.423 33.3938 10.7289 34.1934 11.5782C35.7532 13.2346 37.1721 17.1124 38.1926 21.0847C38.219 21.1876 38.2064 21.2967 38.1571 21.3908C38.1077 21.4849 38.0253 21.5574 37.9256 21.5942C34.872 22.722 31.9339 24.464 29.496 26.5985C29.358 26.7194 29.2639 26.8824 29.2282 27.0622C28.5564 30.4547 28.5564 34.1171 29.2284 37.5096C29.2638 37.6895 29.3579 37.8527 29.496 37.9735C32.0981 40.2515 35.2699 42.0826 38.5438 43.197C38.7174 43.2561 38.9057 43.2561 39.0794 43.197C40.0474 42.8666 40.9954 42.4802 41.9185 42.0397C42.0155 41.9936 42.1261 41.9855 42.2288 42.0169C42.3314 42.0484 42.4185 42.1172 42.4729 42.2097C42.8987 42.9331 42.9469 43.5521 42.7543 44.0795C42.4873 44.8093 41.695 45.3945 40.5786 45.8261C38.1275 46.7737 34.0616 47.0876 31.9588 47.6611C29.7784 48.2558 27.1666 49.0348 24.8959 49.1364C23.2865 49.2083 21.8431 48.9362 20.7977 48.0889C19.8186 47.2954 19.0629 46.8509 18.4511 46.1621C17.8576 45.4938 17.3869 44.6056 16.9988 42.9789C16.4484 40.6717 16.0477 36.8046 15.6075 29.7541C15.3544 25.6996 13.4092 20.2845 12.3835 16.9352C12.0647 15.8941 11.8335 15.0452 11.7577 14.4858C11.7168 14.183 11.7223 13.9469 11.7619 13.7877C11.9497 13.0288 12.2773 12.3214 12.9877 11.811C13.6613 11.3273 14.7041 11.014 16.3786 11.0692C16.4653 11.072 16.5491 11.101 16.619 11.1524C16.6888 11.2038 16.7415 11.2752 16.77 11.3572C17.1236 12.3746 17.5231 13.2852 17.8753 13.7656C17.9913 13.9236 18.1993 13.945 18.4222 13.9108C18.7479 13.8608 19.1061 13.6768 19.4172 13.3969C19.4606 13.3578 19.4338 13.3091 19.4233 13.2605C19.3945 13.1258 19.3453 12.9839 19.3146 12.8362C19.2398 12.4743 19.2499 12.0915 19.5951 11.696C19.644 11.64 19.7065 11.5976 19.7766 11.573C19.8468 11.5484 19.9221 11.5425 19.9952 11.5557C22.7479 12.0559 25.1048 12.0855 27.0774 11.867C27.1606 11.8577 27.2447 11.873 27.3194 11.911C27.394 11.9489 27.4559 12.0079 27.4974 12.0806C27.7473 12.5179 27.888 12.9375 28.048 13.1662C28.1282 13.2807 28.3022 13.3392 28.4961 13.3889C28.8891 13.4896 29.3804 13.4933 29.7452 13.3922C29.8193 13.3729 29.8908 13.3452 29.9584 13.3093C29.9875 13.2933 30.0252 13.2616 30.0388 13.2496ZM41.905 42.9933C41.0729 43.3749 40.2221 43.7141 39.3558 44.0096C39.0028 44.1297 38.6201 44.1297 38.2671 44.0096C34.8888 42.8596 31.6158 40.97 28.9307 38.6192C28.6502 38.3736 28.4588 38.0421 28.3863 37.6764C27.6931 34.1756 27.6931 30.3962 28.3863 26.8954C28.4587 26.5297 28.6501 26.1982 28.9307 25.9528C31.3491 23.8354 34.2447 22.0918 37.2646 20.9263C36.4346 17.7749 35.3684 14.7227 34.1689 12.9342C33.7876 12.3657 33.3987 11.93 32.9939 11.6835C32.6693 11.4859 32.3385 11.4237 32.0023 11.5551C31.536 11.7372 31.0622 11.8994 30.5822 12.0411C30.6199 12.3546 30.6658 12.5993 30.7484 12.7414C30.9338 13.0601 30.9324 13.337 30.8399 13.566C30.7237 13.8542 30.4141 14.0973 29.9745 14.2192C29.4805 14.3562 28.8154 14.3568 28.2831 14.2202C27.8596 14.1117 27.5199 13.9084 27.345 13.6585C27.2047 13.4581 27.0739 13.1223 26.8836 12.7499C24.9759 12.9353 22.7328 12.897 20.1451 12.4539C20.1307 12.5352 20.1439 12.6145 20.1612 12.6903C20.1853 12.796 20.2181 12.8988 20.2432 12.9977C20.341 13.3845 20.3314 13.7288 19.9915 14.0349C19.447 14.5247 18.7912 14.7855 18.2519 14.7818C17.8063 14.7787 17.4281 14.6073 17.1832 14.2732C16.8299 13.7914 16.4231 12.9198 16.0593 11.9212C14.8178 11.9127 14.015 12.13 13.4885 12.5082C12.9587 12.8885 12.735 13.4282 12.5949 13.9939C12.5638 14.1199 12.5945 14.3255 12.6456 14.5997C12.743 15.1215 12.9443 15.8352 13.2042 16.6839C14.2453 20.084 16.2072 25.5846 16.4641 29.7006C16.8995 36.673 17.2893 40.4981 17.8337 42.7797C18.1756 44.2123 18.5701 45.0036 19.0927 45.5921C19.6765 46.2492 20.4041 46.6651 21.338 47.4221C22.2333 48.1476 23.4793 48.3404 24.8576 48.2788C27.0688 48.18 29.6099 47.412 31.733 46.8332C33.8148 46.2653 37.8424 45.9637 40.2692 45.0256C41.1045 44.7026 41.7484 44.3308 41.948 43.7847C42.0339 43.5497 42.0195 43.2889 41.905 42.9933Z" fill="#193722"/>
<path fill-rule="evenodd" clip-rule="evenodd" d="M49.2364 26.8955C49.9298 30.3963 49.9298 34.1757 49.2364 37.6765C49.1639 38.0422 48.9726 38.3736 48.6922 38.6193C46.0071 40.9701 42.7341 42.8597 39.3556 44.0097C39.0026 44.1298 38.6199 44.1298 38.2669 44.0097C34.8886 42.8597 31.6156 40.9701 28.9305 38.6193C28.65 38.3737 28.4586 38.0422 28.3861 37.6765C27.6929 34.1757 27.6929 30.3963 28.3861 26.8955C28.4585 26.5298 28.6499 26.1983 28.9305 25.9529C31.6156 23.6021 34.8886 21.7123 38.2669 20.5622C38.6199 20.4421 39.0026 20.4421 39.3556 20.5622C42.7341 21.7123 46.0071 23.6021 48.6922 25.9529C48.9727 26.1984 49.164 26.5298 49.2364 26.8955ZM48.3945 27.0623C48.359 26.8824 48.2648 26.7193 48.1268 26.5986C45.5247 24.3206 42.353 22.4893 39.0792 21.3749C38.9055 21.3157 38.7172 21.3157 38.5436 21.3749C35.2697 22.4893 32.0979 24.3206 29.4958 26.5986C29.3578 26.7194 29.2637 26.8825 29.228 27.0623C28.5562 30.4548 28.5562 34.1172 29.2282 37.5096C29.2636 37.6896 29.3577 37.8528 29.4958 37.9735C32.0979 40.2516 35.2697 42.0827 38.5436 43.1971C38.7172 43.2562 38.9055 43.2562 39.0792 43.1971C42.353 42.0827 45.5247 40.2516 48.1268 37.9735C48.2648 37.8527 48.3589 37.6896 48.3945 37.5096C49.0663 34.1172 49.0663 30.4548 48.3945 27.0623ZM45.8569 27.5637C43.7807 29.1637 41.406 30.4703 38.9574 31.3542C38.8633 31.3882 38.7603 31.3882 38.6661 31.3542C36.2161 30.4699 33.8418 29.1637 31.7658 27.5639C31.7138 27.5238 31.6717 27.4723 31.6427 27.4134C31.6137 27.3544 31.5986 27.2896 31.5986 27.2239C31.5986 27.1582 31.6137 27.0934 31.6427 27.0345C31.6717 26.9755 31.7138 26.924 31.7658 26.8839C33.8422 25.2838 36.2171 23.9772 38.6653 23.0933C38.7595 23.0593 38.8626 23.0593 38.9568 23.0933C41.4056 23.9774 43.7807 25.284 45.8569 26.8839C45.909 26.924 45.9511 26.9755 45.9802 27.0344C46.0092 27.0933 46.0242 27.1581 46.0242 27.2238C46.0242 27.2895 46.0092 27.3543 45.9802 27.4132C45.9511 27.4722 45.909 27.5237 45.8569 27.5637ZM44.8813 27.2238C43.0274 25.8632 40.9506 24.7422 38.8107 23.9539C36.6721 24.7422 34.5953 25.863 32.7414 27.2238C34.5949 28.5844 36.6713 29.705 38.812 30.4935C40.9508 29.7054 43.0274 28.5844 44.8813 27.2238ZM31.2137 29.2279C33.1983 30.6892 35.4158 31.9013 37.7035 32.7702C37.785 32.8011 37.855 32.856 37.9045 32.9277C37.9539 32.9993 37.9804 33.0844 37.9804 33.1714V40.5793C37.9804 40.6503 37.9628 40.7201 37.9292 40.7825C37.8956 40.845 37.847 40.8981 37.7879 40.9372C37.7287 40.9763 37.6608 41.0002 37.5902 41.0066C37.5196 41.0131 37.4485 41.002 37.3832 40.9742C35.0578 39.9846 32.8382 38.6243 30.9235 37.0091C30.8469 36.9446 30.7953 36.8553 30.7777 36.7567C30.3562 34.4039 30.2744 31.9277 30.5325 29.5276C30.5406 29.4526 30.5684 29.381 30.6129 29.3201C30.6575 29.2592 30.7174 29.2112 30.7865 29.1808C30.8555 29.1504 30.9314 29.1387 31.0064 29.147C31.0814 29.1553 31.153 29.1832 31.2137 29.2279ZM31.318 30.3578C31.161 32.3916 31.2533 34.4655 31.5965 36.4533C33.2537 37.8324 35.1408 39.0144 37.122 39.9208C37.122 39.9208 37.122 33.4656 37.1222 33.4658C35.093 32.6694 33.1223 31.6125 31.318 30.3578ZM39.6423 40.5798V33.1714C39.6423 32.9931 39.7523 32.8334 39.919 32.7702C42.2067 31.9013 44.424 30.6892 46.4086 29.2281C46.4694 29.1835 46.5409 29.1556 46.6158 29.1473C46.6908 29.1391 46.7667 29.1507 46.8357 29.1811C46.9048 29.2115 46.9646 29.2596 47.0092 29.3204C47.0537 29.3813 47.0815 29.4529 47.0896 29.5279C47.3481 31.9281 47.2665 34.4039 46.8457 36.7555C46.828 36.8541 46.7764 36.9433 46.6999 37.0079C44.7843 38.6243 42.5643 39.9849 40.2395 40.9747C40.1743 41.0025 40.1031 41.0137 40.0325 41.0073C39.9618 41.0009 39.8938 40.977 39.8347 40.9379C39.7755 40.8988 39.7269 40.8456 39.6934 40.7831C39.6598 40.7206 39.6423 40.6507 39.6423 40.5798ZM40.5005 39.9212C42.4817 39.0144 44.3692 37.8318 46.0277 36.4506C46.3694 34.4649 46.4617 32.3914 46.3041 30.3582C44.5001 31.6129 42.5295 32.6694 40.5005 33.4656V39.9212Z" fill="#193722"/>
</svg>
