<svg width="56" height="56" viewBox="0 0 56 56" fill="none" xmlns="http://www.w3.org/2000/svg">
<path fill-rule="evenodd" clip-rule="evenodd" d="M16.7941 15.5937C17.5062 8.65584 22.4756 4.00391 28.4652 4.00391C34.4551 4.00391 39.4242 8.65584 40.1363 15.5937C40.1808 15.5821 40.2253 15.5716 40.27 15.5624C40.9016 15.4297 41.5431 15.5096 42.0527 15.8921C42.5668 16.2782 42.9706 16.9934 43.0229 18.2067C43.103 20.0623 42.648 21.4428 41.8636 22.4231C41.1162 23.3567 40.0645 23.9351 38.8499 24.2013C36.8679 28.9714 32.9447 32.4465 28.4652 32.4465C23.9857 32.4465 20.0628 28.9714 18.0811 24.2019C16.866 23.9351 15.8142 23.3567 15.0671 22.4231C14.2824 21.4428 13.8274 20.0623 13.9075 18.2067C13.9601 16.9934 14.3636 16.2782 14.878 15.8921C15.3874 15.5096 16.0288 15.4297 16.6604 15.5624C16.7051 15.5716 16.7498 15.5821 16.7941 15.5937ZM39.3062 15.9325C38.7366 9.34117 34.109 4.86228 28.4652 4.86228C22.8214 4.86228 18.1938 9.34117 17.6242 15.9325C18.1184 16.2114 18.5339 16.5958 18.7624 16.9895C18.8157 17.0877 18.8286 17.2028 18.7984 17.3103C18.7682 17.4179 18.6973 17.5095 18.6007 17.5656C18.504 17.6217 18.3893 17.6379 18.281 17.6108C18.1726 17.5837 18.079 17.5154 18.0202 17.4204C17.7985 17.0387 17.3237 16.6825 16.8036 16.4939C16.3224 16.3194 15.7911 16.28 15.3931 16.5787C15.0283 16.8523 14.8021 17.3835 14.7651 18.2438C14.6959 19.8437 15.0607 21.0415 15.7371 21.8867C16.4037 22.7198 17.367 23.2016 18.469 23.4045C18.6138 23.4313 18.735 23.5303 18.7898 23.6671C20.6031 28.2002 24.2424 31.5884 28.4652 31.5884C32.6881 31.5884 36.3273 28.2002 38.1407 23.6671C38.1677 23.5999 38.2112 23.5405 38.2673 23.4946C38.3234 23.4487 38.3901 23.4177 38.4614 23.4045C39.5635 23.2016 40.5269 22.7198 41.1935 21.8867C41.8698 21.0415 42.2346 19.8437 42.1654 18.2438C42.1283 17.3835 41.9021 16.8523 41.5373 16.5787C41.1395 16.28 40.6081 16.3194 40.1271 16.4939C39.6067 16.6825 39.1319 17.0387 38.9105 17.4204C38.8532 17.5188 38.7593 17.5904 38.6493 17.6196C38.5394 17.6488 38.4223 17.6331 38.3238 17.5761C38.2255 17.5189 38.1538 17.425 38.1246 17.315C38.0955 17.205 38.1111 17.0879 38.1681 16.9895C38.3965 16.5958 38.812 16.2114 39.3062 15.9325Z" fill="#193722"/>
<path fill-rule="evenodd" clip-rule="evenodd" d="M21.69 29.368C21.6913 29.2562 21.7362 29.1493 21.8152 29.0701C21.8941 28.9909 22.0009 28.9456 22.1127 28.9439C22.2246 28.9422 22.3326 28.9842 22.4139 29.061C22.4953 29.1378 22.5434 29.2433 22.5481 29.355C22.5597 30.1141 22.5761 31.7244 22.2123 33.0337C21.9371 34.0234 21.4323 34.8349 20.6361 35.1331C19.5336 35.5466 16.2373 36.0852 13.7774 37.232C13.0045 37.5923 12.3163 38.0117 11.8241 38.5153C11.3819 38.9681 11.1032 39.488 11.1032 40.0992C11.1032 42.3043 10.5157 45.477 10.0446 47.6573C9.81593 48.7888 10.5315 49.896 11.6571 50.152C15.12 50.8893 21.7231 52.0688 28.4653 52.0688C35.2072 52.0688 41.8103 50.8893 45.2738 50.1539C46.4 49.8974 47.1162 48.7894 46.8878 47.6571C46.4146 45.477 45.8271 42.3043 45.8271 40.0992C45.8271 39.488 45.5484 38.9681 45.1062 38.5153C44.614 38.0117 43.9258 37.5923 43.1529 37.232C40.6932 36.0852 37.3967 35.5466 36.2942 35.1331C35.4983 34.8349 34.9932 34.0234 34.7182 33.0339C34.3542 31.7248 34.3706 30.1145 34.3822 29.3552C34.3869 29.2435 34.435 29.138 34.5164 29.0612C34.5977 28.9844 34.7057 28.9424 34.8176 28.9441C34.9294 28.9458 35.0362 28.9911 35.1151 29.0703C35.1941 29.1495 35.239 29.2564 35.2403 29.3682C35.2296 30.077 35.2051 31.5814 35.545 32.804C35.7391 33.5023 36.0338 34.119 36.5954 34.3296C37.7081 34.7467 41.0331 35.2967 43.5157 36.4542C45.3346 37.3022 46.6855 38.4982 46.6855 40.0992C46.6855 42.2528 47.2654 45.351 47.7274 47.4789L47.7286 47.4846C48.051 49.0753 47.0443 50.6326 45.4613 50.9915L45.4557 50.9927C41.9563 51.7357 35.2809 52.927 28.4653 52.927C21.6494 52.927 14.9738 51.7357 11.4748 50.9908L11.4694 50.9896C9.8872 50.6312 8.88113 49.0747 9.20372 47.4849L9.20495 47.4797C9.66493 45.3514 10.245 42.2528 10.245 40.0992C10.245 38.4982 11.5957 37.3022 13.4146 36.4542C15.8972 35.2967 19.2222 34.7467 20.3349 34.3296C20.8965 34.119 21.1912 33.5021 21.3853 32.8038C21.7252 31.5812 21.7007 30.0768 21.69 29.368Z" fill="#193722"/>
</svg>
