<svg width="56" height="56" viewBox="0 0 56 56" fill="none" xmlns="http://www.w3.org/2000/svg">
<path fill-rule="evenodd" clip-rule="evenodd" d="M11.8664 35.454C14.4358 36.2669 16.9168 37.6993 18.9052 39.5178C18.9705 39.5776 19.0156 39.6558 19.0348 39.7422C19.6155 42.3735 19.6155 45.2382 19.0348 47.8696C19.0157 47.9559 18.9704 48.0342 18.9052 48.0939C16.9168 49.9124 14.4358 51.3449 11.8664 52.1577C11.7822 52.1843 11.6919 52.1843 11.6077 52.1577C9.03836 51.3449 6.55739 49.9124 4.56894 48.0939C4.50372 48.0343 4.45853 47.9559 4.43958 47.8696C3.85868 45.2382 3.85868 42.3735 4.43958 39.7422C4.45853 39.6558 4.50372 39.5775 4.56894 39.5178C6.55739 37.6993 9.03836 36.2669 11.6077 35.454C11.6919 35.4274 11.7822 35.4274 11.8664 35.454ZM11.7369 36.314C9.37434 37.0826 7.09606 38.3976 5.24872 40.0606C4.73291 42.4909 4.73291 45.121 5.24934 47.5524C7.09627 49.2141 9.37413 50.5292 11.7377 51.2975C14.1002 50.5292 16.3781 49.2139 18.2254 47.5511C18.7412 45.1208 18.7412 42.4907 18.2248 40.0594C16.3781 38.3976 14.0996 37.0826 11.7369 36.314ZM28.5949 35.454C31.164 36.2669 33.645 37.6993 35.6334 39.5178C35.6987 39.5776 35.7438 39.6558 35.763 39.7422C36.3437 42.3735 36.3437 45.2382 35.763 47.8696C35.7439 47.9559 35.6987 48.0342 35.6334 48.0939C33.645 49.9124 31.164 51.3449 28.5949 52.1577C28.5106 52.1843 28.4202 52.1843 28.3359 52.1577C25.7668 51.3449 23.2856 49.9124 21.2972 48.0939C21.232 48.0342 21.1868 47.9559 21.1678 47.8696C20.5871 45.2382 20.5871 42.3735 21.1678 39.7422C21.1868 39.6558 21.2321 39.5776 21.2972 39.5178C23.2856 37.6993 25.7668 36.2669 28.3359 35.454C28.4202 35.4274 28.5106 35.4274 28.5949 35.454ZM28.4653 36.314C26.1028 37.0826 23.8243 38.3976 21.977 40.0606C21.4612 42.4909 21.4612 45.121 21.9776 47.5524C23.8245 49.2141 26.1024 50.5292 28.4659 51.2975C30.8287 50.5292 33.1065 49.2139 34.9537 47.5511C35.4695 45.1208 35.4695 42.4907 34.953 40.0594C33.1063 38.3976 30.8278 37.0826 28.4653 36.314ZM45.3231 35.454C47.8923 36.2669 50.3734 37.6993 52.3619 39.5178C52.427 39.5776 52.4723 39.6558 52.4912 39.7422C53.0719 42.3735 53.0719 45.2382 52.4912 47.8696C52.4722 47.9559 52.427 48.0342 52.3619 48.0939C50.3734 49.9124 47.8923 51.3449 45.3231 52.1577C45.2389 52.1843 45.1485 52.1843 45.0642 52.1577C42.495 51.3449 40.0141 49.9124 38.0256 48.0939C37.9604 48.0342 37.9152 47.9559 37.8961 47.8696C37.3154 45.2382 37.3154 42.3735 37.8961 39.7422C37.9152 39.6558 37.9603 39.5776 38.0256 39.5178C40.0141 37.6993 42.495 36.2669 45.0642 35.454C45.1485 35.4274 45.2389 35.4274 45.3231 35.454ZM45.1936 36.314C42.831 37.0826 40.5525 38.3976 38.7054 40.0606C38.1896 42.4909 38.1896 45.121 38.706 47.5524C40.5527 49.2141 42.8306 50.5292 45.1944 51.2975C47.5569 50.5292 49.8348 49.2139 51.6821 47.5511C52.1979 45.1208 52.1977 42.4907 51.6815 40.0594C49.8346 38.3976 47.5561 37.0826 45.1936 36.314Z" fill="#193722"/>
<path fill-rule="evenodd" clip-rule="evenodd" d="M4.56928 39.5178C6.55773 37.6993 9.0387 36.2669 11.608 35.454C11.6922 35.4274 11.7826 35.4274 11.8668 35.454C14.4361 36.2669 16.9171 37.6993 18.9055 39.5178C18.9495 39.558 18.9847 39.6069 19.0088 39.6615C19.0328 39.716 19.0452 39.7749 19.0452 39.8345C19.0452 39.8941 19.0328 39.9531 19.0088 40.0076C18.9847 40.0622 18.9495 40.1111 18.9055 40.1513C16.9171 41.9698 14.4361 43.4022 11.8668 44.2151C11.7826 44.2416 11.6922 44.2416 11.608 44.2151C9.0387 43.4022 6.55773 41.9698 4.56928 40.1513C4.5253 40.1111 4.49017 40.0621 4.46613 40.0076C4.4421 39.9531 4.42969 39.8941 4.42969 39.8345C4.42969 39.775 4.4421 39.716 4.46613 39.6615C4.49017 39.607 4.5253 39.558 4.56928 39.5178ZM5.50469 39.8344C7.30404 41.3901 9.482 42.6215 11.738 43.3551C13.993 42.6215 16.1708 41.3901 17.9701 39.8346C16.1708 38.279 13.9928 37.0476 11.7368 36.314C9.482 37.0476 7.30404 38.279 5.50469 39.8344ZM21.2975 39.5178C23.286 37.6993 25.7671 36.2669 28.3363 35.454C28.4206 35.4274 28.511 35.4274 28.5952 35.454C31.1644 36.2669 33.6453 37.6993 35.6338 39.5178C35.6778 39.558 35.7129 39.607 35.7369 39.6615C35.761 39.716 35.7734 39.775 35.7734 39.8345C35.7734 39.8941 35.761 39.9531 35.7369 40.0076C35.7129 40.0621 35.6778 40.1111 35.6338 40.1513C33.6453 41.9698 31.1644 43.4022 28.5952 44.2151C28.511 44.2416 28.4206 44.2416 28.3363 44.2151C25.7671 43.4022 23.286 41.9698 21.2975 40.1513C21.2536 40.111 21.2186 40.062 21.1947 40.0075C21.1707 39.953 21.1583 39.8941 21.1583 39.8345C21.1583 39.775 21.1707 39.7161 21.1947 39.6616C21.2186 39.607 21.2536 39.5581 21.2975 39.5178ZM22.2329 39.8344C24.0325 41.3901 26.2102 42.6215 28.4663 43.3551C30.7213 42.6215 32.899 41.3901 34.6986 39.8346C32.899 38.279 30.7213 37.0476 28.4652 36.314C26.2102 37.0476 24.0325 38.279 22.2329 39.8344ZM38.026 39.5178C40.0144 37.6993 42.4954 36.2669 45.0645 35.454C45.1488 35.4274 45.2392 35.4274 45.3235 35.454C47.8926 36.2669 50.3738 37.6993 52.3622 39.5178C52.4061 39.5581 52.4412 39.607 52.4652 39.6615C52.4891 39.7161 52.5015 39.775 52.5015 39.8345C52.5015 39.8941 52.4891 39.953 52.4652 40.0075C52.4412 40.0621 52.4061 40.111 52.3622 40.1513C50.3738 41.9698 47.8926 43.4022 45.3235 44.2151C45.2392 44.2416 45.1488 44.2416 45.0645 44.2151C42.4954 43.4022 40.0144 41.9698 38.026 40.1513C37.982 40.111 37.9469 40.0621 37.9229 40.0076C37.8989 39.9531 37.8865 39.8941 37.8865 39.8345C37.8865 39.775 37.8989 39.716 37.9229 39.6615C37.9469 39.607 37.982 39.5581 38.026 39.5178ZM38.9612 39.8344C40.7607 41.3901 42.9385 42.6215 45.1945 43.3551C47.4495 42.6215 49.6273 41.3901 51.4268 39.8346C49.6273 38.279 47.4495 37.0476 45.1935 36.314C42.9385 37.0476 40.7607 38.279 38.9612 39.8344Z" fill="#193722"/>
<path fill-rule="evenodd" clip-rule="evenodd" d="M11.3076 43.8061C11.3111 43.6946 11.3578 43.5889 11.4379 43.5112C11.518 43.4336 11.6251 43.3901 11.7367 43.3901C11.8483 43.3901 11.9554 43.4336 12.0355 43.5112C12.1156 43.5889 12.1623 43.6946 12.1658 43.8061V51.7488C12.1658 51.9857 11.9736 52.1781 11.7367 52.1781C11.4998 52.1781 11.3076 51.9857 11.3076 51.7488V43.8061ZM28.0359 43.8061C28.0359 43.5694 28.2283 43.377 28.4649 43.377C28.7018 43.377 28.8942 43.5694 28.8942 43.8061V51.7488C28.8942 51.9857 28.7018 52.1781 28.4649 52.1781C28.3511 52.178 28.242 52.1327 28.1616 52.0522C28.0811 51.9717 28.0359 51.8626 28.0359 51.7488V43.8061ZM44.7641 43.8061C44.7641 43.5694 44.9565 43.377 45.1934 43.377C45.4301 43.377 45.6225 43.5694 45.6225 43.8061V51.7488C45.6225 51.9857 45.4301 52.1781 45.1934 52.1781C45.0795 52.178 44.9704 52.1328 44.8899 52.0523C44.8094 51.9718 44.7641 51.8626 44.7641 51.7488V43.8061ZM25.4517 27.124C25.3991 27.1009 25.3517 27.0675 25.3122 27.0257C25.2728 26.9839 25.2422 26.9346 25.2221 26.8808C25.2021 26.8269 25.1931 26.7696 25.1956 26.7122C25.1981 26.6548 25.2121 26.5985 25.2368 26.5466C25.2615 26.4947 25.2964 26.4483 25.3393 26.4102C25.3823 26.372 25.4324 26.3428 25.4868 26.3244C25.5413 26.306 25.5988 26.2987 25.6561 26.3029C25.7134 26.3072 25.7693 26.3229 25.8204 26.3491C26.2938 26.5742 26.9942 26.6457 27.7203 26.649C28.8728 26.6542 30.0919 26.4712 30.6732 26.3211C30.7822 26.2961 30.8966 26.3147 30.9921 26.3728C31.0876 26.4308 31.1567 26.5239 31.1846 26.6322C31.2126 26.7404 31.1972 26.8553 31.1418 26.9524C31.0864 27.0495 30.9953 27.1211 30.8878 27.152C30.2635 27.3133 28.9544 27.5129 27.7166 27.5074C26.8491 27.5035 26.0169 27.393 25.4517 27.124Z" fill="#193722"/>
<path fill-rule="evenodd" clip-rule="evenodd" d="M15.5894 7.2448C16.3718 6.46244 18.0405 5.86774 20.0794 5.47409C24.6545 4.591 31.112 4.62375 32.8837 5.0345C34.4155 5.38984 37.2555 6.62744 39.5181 8.22594C41.0744 9.32532 42.3499 10.6037 42.8031 11.8683C43.5685 14.0032 43.7793 19.978 43.0422 24.1566C42.7126 26.0245 42.176 27.5373 41.4592 28.2542C40.6644 29.0491 38.9351 29.6187 36.8004 29.9664C32.0311 30.7434 25.2082 30.5246 23.0488 30.1248C21.4431 29.8273 18.3182 28.6946 16.3853 27.4339C15.4753 26.8403 14.8303 26.1971 14.6356 25.6134C13.431 21.9992 13.2252 15.632 13.987 11.3636C14.3283 9.45077 14.8822 7.95197 15.5894 7.2448ZM16.1962 7.85165C15.5709 8.47705 15.1337 9.82279 14.832 11.5144C14.0929 15.6561 14.2809 21.835 15.4499 25.3419C15.6013 25.7959 16.1464 26.2534 16.8542 26.715C18.6964 27.9166 21.6746 28.9974 23.2051 29.2808C25.3182 29.6722 31.995 29.8797 36.6626 29.1193C38.5724 28.8081 40.1412 28.3584 40.8523 27.6473C41.4855 27.0141 41.906 25.6574 42.1968 24.0076C42.9077 19.9782 42.7332 14.2164 41.9952 12.1579C41.5894 11.026 40.4158 9.91096 39.0229 8.92693C36.8618 7.40012 34.153 6.20989 32.6899 5.87062C30.9674 5.4712 24.6901 5.45823 20.2421 6.31701C18.4142 6.66987 16.8977 7.15025 16.1962 7.85165Z" fill="#193722"/>
<path fill-rule="evenodd" clip-rule="evenodd" d="M46.4511 23.516C46.4736 23.4065 46.5379 23.3101 46.6303 23.2473C46.7228 23.1845 46.8361 23.1602 46.9462 23.1796C47.0563 23.199 47.1545 23.2606 47.2198 23.3513C47.2852 23.442 47.3126 23.5546 47.2963 23.6652C46.7726 26.6335 45.6527 28.9281 44.5135 30.0674C43.2961 31.2848 40.764 32.4561 37.4943 32.9888C32.211 33.8495 24.6532 33.5742 22.2612 33.1312C20.2766 32.7637 16.4126 31.3689 14.024 29.811C12.0911 28.5501 10.9489 26.9773 10.5357 25.7377C10.5026 25.6305 10.5128 25.5146 10.5641 25.4149C10.6154 25.3151 10.7037 25.2394 10.8101 25.2039C10.9165 25.1684 11.0326 25.176 11.1335 25.225C11.2344 25.274 11.3121 25.3606 11.35 25.4662C11.7197 26.5754 12.7635 27.964 14.4928 29.0921C16.791 30.5909 20.5082 31.9337 22.4173 32.2872C24.7632 32.7216 32.1752 32.9857 37.3563 32.1418C40.4003 31.6459 42.7733 30.5939 43.9067 29.4606C44.9618 28.4053 45.966 26.2656 46.4511 23.516ZM15.6608 7.17527C16.4814 6.41269 18.159 5.83632 20.1887 5.45318C24.7566 4.5913 31.1252 4.62715 32.8828 5.0346C34.363 5.37799 37.0655 6.54514 39.2873 8.06619C40.8061 9.10604 42.0954 10.3165 42.6623 11.5298C42.6908 11.5908 42.7047 11.6577 42.7026 11.725C42.7005 11.7924 42.6825 11.8583 42.6502 11.9174C42.6179 11.9765 42.5721 12.0272 42.5165 12.0653C42.461 12.1034 42.3972 12.1279 42.3304 12.1368C37.6715 12.761 27.2139 13.9333 23.0056 12.7025C19.7108 11.739 17.1655 9.47662 15.634 7.77677C15.5586 7.69309 15.5191 7.58309 15.5241 7.47053C15.5291 7.35798 15.5782 7.25192 15.6608 7.17527ZM16.5826 7.53968C18.0542 9.1011 20.3391 11.0286 23.2464 11.8787C27.1982 13.0345 36.7622 11.9976 41.589 11.3691C40.9861 10.4532 39.9601 9.56685 38.8024 8.77439C36.68 7.32153 34.1029 6.19866 32.6889 5.87072C30.9802 5.4746 24.7889 5.45874 20.3477 6.29672C18.761 6.59602 17.3993 6.99174 16.5826 7.53968Z" fill="#193722"/>
<path fill-rule="evenodd" clip-rule="evenodd" d="M23.5683 12.4451C23.5844 12.3344 23.643 12.2344 23.7317 12.1663C23.8204 12.0982 23.9322 12.0674 24.0433 12.0804C24.1543 12.0935 24.2559 12.1494 24.3264 12.2362C24.3969 12.323 24.4307 12.4338 24.4207 12.5452C24.2141 14.3052 23.0204 22.9124 24.0802 29.6352C24.0951 29.7463 24.0659 29.8588 23.9989 29.9487C23.9319 30.0386 23.8323 30.0987 23.7216 30.1161C23.6109 30.1336 23.4977 30.107 23.4063 30.0421C23.3148 29.9772 23.2524 29.8792 23.2324 29.7689C22.1581 22.954 23.3589 14.2292 23.5683 12.4451ZM25.4651 24.6687C25.3535 24.6463 25.2554 24.5805 25.1923 24.4858C25.1291 24.3911 25.1062 24.2752 25.1285 24.1636C25.151 24.052 25.2168 23.9539 25.3116 23.8908C25.4063 23.8278 25.5222 23.8049 25.6338 23.8272C27.0875 24.1187 31.9347 24.0285 33.5388 23.4667C33.6462 23.4291 33.7642 23.4357 33.8667 23.4851C33.9692 23.5344 34.048 23.6225 34.0856 23.7299C34.1232 23.8373 34.1166 23.9552 34.0673 24.0578C34.0179 24.1603 33.9299 24.2391 33.8224 24.2767C32.1265 24.8706 27.0022 24.9769 25.4651 24.6687ZM22.9471 5.0545C25.0754 4.82482 27.3083 4.73809 29.152 4.7556C29.2533 4.75643 29.3512 4.7933 29.428 4.85942C31.7897 6.89236 34.1129 10.344 35.3233 12.2892C35.3621 12.3516 35.3841 12.4229 35.3874 12.4963C35.3907 12.5697 35.3751 12.6428 35.3422 12.7084C35.3092 12.7741 35.2599 12.8302 35.199 12.8714C35.1382 12.9125 35.0678 12.9374 34.9945 12.9436C33.1383 13.0981 31.2119 13.2141 29.4107 13.2433C29.2502 13.246 29.1017 13.1589 29.0257 13.0175C27.3164 9.83805 24.5577 7.19352 22.7353 5.82429C22.6663 5.77264 22.6145 5.70141 22.5866 5.61988C22.5587 5.53836 22.556 5.45031 22.5788 5.36722C22.6017 5.28414 22.649 5.20986 22.7147 5.15408C22.7804 5.0983 22.8614 5.06359 22.9471 5.0545ZM24.0916 5.80678C25.8695 7.29446 28.1272 9.63721 29.6556 12.3804C31.1344 12.3497 32.6911 12.2622 34.2173 12.145C32.9979 10.2399 31.0166 7.40343 28.9853 5.61253C27.5084 5.60367 25.7931 5.66176 24.0916 5.80678Z" fill="#193722"/>
</svg>
