<svg width="118" height="36" viewBox="0 0 118 36" fill="none" xmlns="http://www.w3.org/2000/svg">
<path d="M118 13.6295C117.929 14.2851 117.873 14.9426 117.785 15.5961C117.48 17.874 116.716 19.9238 114.749 21.3469C113.596 22.1475 112.26 22.6551 110.86 22.8246C108.307 23.257 105.686 23.109 103.199 22.3919C101.233 21.7893 99.5628 20.7468 98.7449 18.7909C97.4756 15.7556 98.0998 11.4816 102.572 9.92304C104.051 9.41455 105.598 9.12619 107.163 9.06745C108.274 9.01954 109.388 9.0479 110.5 9.03957C110.609 9.03876 110.717 9.01932 110.818 9.00931C111.115 7.27775 109.956 5.82129 108.05 5.58725C105.127 5.22702 102.166 5.85194 99.6485 7.36048C99.4828 7.45605 99.3152 7.54834 99.1015 7.6686C98.8143 6.57798 98.8709 5.42698 99.2638 4.36888C99.8771 2.6726 101.185 1.67158 102.847 1.13856C105.848 0.128459 109.089 0.0477122 112.138 0.907163C115.308 1.81417 116.954 4.10997 117.58 7.18884C117.766 8.10361 117.798 9.04876 117.905 9.97937C117.929 10.1147 117.96 10.2484 118 10.38V13.6295ZM111.089 13.4341C110.691 13.3956 110.339 13.3366 109.987 13.3329C109.277 13.3055 108.566 13.319 107.858 13.3733C107.298 13.4331 106.749 13.5688 106.227 13.7766C105.799 13.9363 105.437 14.2311 105.197 14.6151C104.957 14.9991 104.853 15.4507 104.9 15.8992C104.891 16.3514 105.041 16.7927 105.326 17.1475C105.61 17.5023 106.011 17.7484 106.46 17.8436C107.099 17.998 107.758 18.0624 108.416 18.0347C108.93 18.0302 109.43 17.8711 109.85 17.5789C110.27 17.2866 110.589 16.875 110.765 16.3991C111.125 15.4535 111.236 14.4336 111.089 13.4341Z" fill="#017D4B"/>
<path d="M20.6627 22.4661C19.0449 22.4265 17.4727 22.6461 15.9434 22.1935C14.3145 21.7115 13.4422 20.3865 13.4355 18.4203C13.4256 15.4895 13.4382 12.5586 13.4268 9.62778C13.4297 9.21458 13.3832 8.80249 13.2884 8.4C13.1753 7.83128 12.8689 7.31757 12.4198 6.94368C11.9707 6.5698 11.4057 6.35808 10.8181 6.34348C9.20008 6.28496 8.1196 6.90138 7.68788 8.20647C7.53394 8.69063 7.45618 9.19519 7.45731 9.70258C7.43939 13.7483 7.44744 17.7942 7.44707 21.8401C7.44701 22.4684 7.44526 22.4862 6.81331 22.4662C5.62096 22.4825 4.42875 22.4244 3.24384 22.2922C2.34204 22.1678 1.51848 21.7198 0.930774 21.034C0.343072 20.3482 0.0325227 19.4729 0.0585694 18.5754C0.0264965 15.4859 -0.066895 12.3903 0.0814538 9.30729C0.322132 4.30559 3.64853 0.93762 8.53387 0.440197C9.94745 0.278957 11.3789 0.367697 12.7608 0.702244C13.6914 0.93163 14.5661 1.34217 15.3333 1.90972C16.1006 2.47728 16.7451 3.19038 17.2288 4.00709C17.3032 3.95754 17.369 3.93541 17.3998 3.89019C18.7468 1.91507 20.6853 0.883593 23.0152 0.51241C25.2723 0.0873076 27.6089 0.443235 29.6306 1.52008C32.0264 2.83164 33.3136 4.93625 33.8215 7.52592C33.9977 8.44784 34.0881 9.3837 34.0916 10.3218C34.1209 14.1763 34.0967 18.0312 34.1137 21.8858C34.1157 22.3407 33.9969 22.5067 33.5202 22.4779C32.2982 22.4038 31.0554 22.4823 29.8546 22.2928C27.7507 21.9607 26.6228 20.5286 26.6176 18.4082C26.6106 15.5092 26.619 12.6102 26.6117 9.71127C26.6122 9.36191 26.5804 9.01323 26.5166 8.66958C26.2188 7.11061 25.2062 6.32768 23.5361 6.34239C22.8579 6.3323 22.1999 6.56934 21.688 7.00807C21.1762 7.44681 20.8466 8.05637 20.7625 8.71989C20.6999 9.0802 20.6679 9.44503 20.6668 9.81058C20.6602 13.8405 20.6588 17.8704 20.6627 21.9003V22.4661Z" fill="#017D4B"/>
<path d="M47.2035 0.367778C51.1593 0.423839 54.4959 1.75991 56.8146 5.05083C58.3868 7.32145 59.0816 10.0724 58.773 12.8049C58.6187 15.4472 57.4881 17.9422 55.5949 19.8186C53.7017 21.6949 51.177 22.8226 48.4979 22.9885C46.1592 23.2543 43.7921 22.8565 41.6747 21.842C38.2635 20.1492 36.3269 17.3644 35.7355 13.6921C35.2371 10.5979 35.7592 7.66014 37.5888 5.04233C39.5095 2.29406 42.2379 0.856209 45.5622 0.451504C45.8343 0.41838 46.107 0.384647 46.3805 0.370824C46.6542 0.356982 46.9291 0.367778 47.2035 0.367778ZM51.5368 11.8542C51.5828 10.6688 51.3591 9.48842 50.882 8.39948C50.594 7.6813 50.0898 7.06728 49.4373 6.63998C48.7849 6.21268 48.0153 5.99258 47.2322 6.00927C46.448 5.96446 45.6696 6.16553 45.0084 6.58368C44.3473 7.00182 43.8373 7.61558 43.5516 8.33702C43.0584 9.42353 42.8047 10.6009 42.8073 11.7913C42.8099 12.9816 43.0687 14.1579 43.5667 15.2423C43.8543 15.9452 44.3575 16.542 45.0058 16.9494C45.6542 17.3567 46.4153 17.5543 47.1831 17.5144C47.949 17.5451 48.7065 17.347 49.3564 16.9461C50.0062 16.5451 50.5181 15.96 50.825 15.2674C51.327 14.1993 51.5707 13.0309 51.5368 11.8542Z" fill="#FE003E"/>
<path d="M77.3807 7.52136C76.3566 7.12938 75.4216 6.69784 74.4428 6.41256C72.551 5.85091 70.5578 5.70317 68.6021 5.97964C68.157 6.04664 67.7328 6.21109 67.3605 6.4609C67.173 6.56854 67.0212 6.72759 66.9236 6.91871C66.826 7.10983 66.7869 7.3248 66.8109 7.53745C66.8349 7.75011 66.9211 7.95129 67.059 8.11654C67.1969 8.28179 67.3805 8.40398 67.5875 8.46826C68.4689 8.71228 69.3625 8.91106 70.2648 9.06379C71.5026 9.34583 72.7642 9.56241 73.9658 9.95516C76.1758 10.6776 77.5257 12.1775 77.8089 14.5167C78.1531 17.3608 77.3841 19.7529 74.6577 21.4875C73.6884 22.0953 72.6102 22.515 71.4812 22.724C69.0103 23.2531 66.4453 23.1752 64.012 22.4972C61.5246 21.7683 60.3032 20.1188 60.2516 17.5631C60.2382 16.8999 60.2495 16.2362 60.2495 15.6409C61.3862 16.1273 62.4119 16.6686 63.5019 17.0098C65.3377 17.5955 67.2933 17.7179 69.1895 17.3657C69.5688 17.2951 69.9285 17.1459 70.2449 16.9278C70.4321 16.8067 70.5826 16.6378 70.6806 16.4393C70.7785 16.2407 70.8202 16.0197 70.8012 15.7997C70.7822 15.5796 70.7033 15.3688 70.5728 15.1893C70.4423 15.0099 70.265 14.8686 70.0597 14.7803C69.2529 14.5161 68.4254 14.3182 67.5855 14.1886C66.4058 13.9361 65.2034 13.7663 64.0446 13.4431C60.9921 12.5917 59.6738 10.7779 59.7513 7.6526C59.8171 4.99843 61.2532 3.1819 63.4766 1.90357C65.8308 0.550007 68.4194 0.178222 71.0899 0.431337C72.1949 0.528516 73.2827 0.765087 74.3267 1.13526C76.2719 1.84597 77.2721 3.32973 77.3749 5.37318C77.4112 6.09411 77.3807 6.81833 77.3807 7.52136Z" fill="#017D4B"/>
<path d="M96.5606 7.46514C95.2714 7.02914 94.0792 6.54108 92.8413 6.22815C91.1953 5.80803 89.4799 5.72215 87.7992 5.97572C87.354 6.0419 86.9286 6.20198 86.5518 6.44504C86.3581 6.55088 86.2005 6.71077 86.0986 6.90463C85.9967 7.09849 85.9552 7.31769 85.9792 7.53474C86.0032 7.7518 86.0917 7.95702 86.2335 8.12468C86.3754 8.29234 86.5643 8.41495 86.7766 8.47715C87.6211 8.7648 88.5332 8.85387 89.4072 9.06407C90.809 9.34457 92.1939 9.7019 93.5554 10.1344C95.8543 10.9651 96.879 12.7555 97.0447 15.1098C97.3518 19.4721 94.3835 21.7716 91.2377 22.5813C88.6952 23.2358 86.0252 23.2384 83.4814 22.589C80.8328 21.9307 79.5203 20.2786 79.4386 17.5859C79.4182 16.9137 79.4607 16.2397 79.4763 15.4732C81.714 17.0902 84.1521 17.5612 86.7159 17.5343C87.4238 17.5095 88.1273 17.412 88.8147 17.2435C89.0721 17.1956 89.3102 17.0764 89.5012 16.8998C89.6923 16.7231 89.8282 16.4965 89.8932 16.2464C89.9508 16.0906 89.9747 15.9246 89.9633 15.7592C89.952 15.5937 89.9057 15.4325 89.8274 15.2857C89.7491 15.139 89.6405 15.01 89.5086 14.9071C89.3767 14.8042 89.2245 14.7296 89.0616 14.6882C88.3166 14.4502 87.5251 14.3556 86.7567 14.1859C85.3436 13.8737 83.9002 13.651 82.5279 13.2129C80.2219 12.4767 79.0752 10.8001 78.9316 8.41601C78.7416 5.2595 80.2958 3.14248 82.9827 1.71883C85.2534 0.515728 87.7197 0.222858 90.2617 0.41409C91.4566 0.469224 92.6313 0.738248 93.7285 1.20802C94.5673 1.56017 95.2824 2.14777 95.7849 2.89767C96.2875 3.64757 96.5552 4.52664 96.5548 5.42544C96.5909 6.13188 96.5606 6.8416 96.5606 7.46514Z" fill="#017D4B"/>
<path d="M75.5181 29.6665C75.5181 29.1119 75.516 28.6058 75.5189 28.0997C75.5206 27.7831 75.9952 27.2668 76.2859 27.2972C76.3381 27.3186 76.3844 27.3534 76.4206 27.3984C76.4569 27.4433 76.4819 27.4971 76.4935 27.5548C76.5211 27.8574 76.5055 28.1643 76.5055 28.4696C76.5056 30.6067 76.5056 32.7438 76.5053 34.8808C76.5052 35.5216 76.2091 35.7206 75.6229 35.4982C75.4938 35.4474 75.3518 35.4463 75.222 35.4951C74.292 35.947 73.3904 35.6171 73.0584 34.6004C72.6097 33.2787 72.6159 31.8333 73.0758 30.5159C73.462 29.403 74.2869 29.1214 75.5181 29.6665ZM75.5178 32.5532C75.5178 32.0947 75.5144 31.6362 75.5187 31.1777C75.5235 30.6687 75.1651 30.5353 74.8038 30.4298C74.7277 30.3976 74.6459 30.3827 74.5639 30.3859C74.4819 30.3892 74.4014 30.4106 74.3278 30.4487C74.2542 30.4868 74.189 30.5409 74.1365 30.6072C74.0841 30.6736 74.0455 30.7509 74.0233 30.834C73.6722 31.9006 73.6593 33.0582 73.9866 34.1331C74.007 34.2253 74.0452 34.3121 74.0987 34.3881C74.1523 34.4641 74.2201 34.5278 74.298 34.5752C74.3759 34.6225 74.4622 34.6526 74.5516 34.6635C74.6409 34.6743 74.7315 34.6658 74.8176 34.6384C75.0189 34.6211 75.2055 34.5206 75.3367 34.359C75.4678 34.1974 75.5329 33.9877 75.5175 33.7758C75.5193 33.3683 75.5179 32.9608 75.5178 32.5532Z" fill="black"/>
<path d="M94.8255 29.7301C94.9791 29.644 95.059 29.5955 95.1419 29.5534C95.3217 29.4432 95.522 29.3754 95.7292 29.3545C95.9363 29.3336 96.1452 29.3602 96.3417 29.4325C96.5381 29.5047 96.7173 29.6209 96.8669 29.773C97.0165 29.9251 97.133 30.1095 97.2084 30.3135C97.7543 31.7137 97.7519 33.2842 97.2016 34.6825C96.8393 35.6373 96.0011 35.892 95.0677 35.5111C94.8146 35.4655 94.555 35.4791 94.3074 35.5509C93.9223 35.5981 93.8022 35.4228 93.8042 35.0274C93.8163 32.7175 93.8091 30.4075 93.8113 28.0976C93.8116 27.7788 94.2966 27.2575 94.5886 27.3023C94.6816 27.3165 94.8107 27.5252 94.8149 27.6489C94.8374 28.3098 94.8255 28.972 94.8255 29.7301ZM94.8262 32.4844C94.8262 32.9424 94.8361 33.4008 94.8236 33.8585C94.8098 34.3658 95.1479 34.5189 95.5133 34.6289C95.5889 34.6621 95.6703 34.6784 95.7522 34.6766C95.8341 34.6749 95.9148 34.6552 95.989 34.6187C96.0633 34.5823 96.1295 34.53 96.1834 34.4651C96.2374 34.4002 96.2778 34.3242 96.3022 34.2419C96.6849 33.1506 96.6917 31.9526 96.3215 30.8566C96.297 30.7695 96.2556 30.6888 96.1998 30.6195C96.144 30.5502 96.0751 30.4939 95.9976 30.4541C95.92 30.4143 95.8354 30.392 95.7491 30.3884C95.6629 30.3849 95.5769 30.4003 95.4966 30.4337C95.1339 30.5438 94.7939 30.695 94.8216 31.2124C94.8442 31.6351 94.8262 32.0603 94.8262 32.4844Z" fill="black"/>
<path d="M102.355 32.5346C102.355 33.3153 102.355 34.0961 102.355 34.8768C102.354 35.5341 102.092 35.7195 101.479 35.5259C101.331 35.477 101.172 35.4807 101.026 35.5366C99.9736 36.0311 98.8939 35.4713 98.8057 34.254C98.6994 32.7858 98.7377 31.3057 98.7205 29.8307C98.7154 29.3919 99.0419 29.4986 99.2825 29.4849C99.5387 29.4703 99.7639 29.4781 99.7596 29.8678C99.7466 31.0557 99.7533 32.2439 99.7571 33.4319C99.7548 33.6351 99.7684 33.8381 99.7977 34.0389C99.803 34.133 99.8271 34.2248 99.8684 34.3084C99.9097 34.392 99.9673 34.4656 100.037 34.5242C100.108 34.5828 100.189 34.6252 100.275 34.6487C100.362 34.6721 100.453 34.676 100.541 34.6602C100.742 34.6495 100.933 34.5627 101.078 34.4159C101.223 34.269 101.313 34.0719 101.331 33.8609C101.339 32.588 101.347 31.3148 101.327 30.0423C101.32 29.6296 101.432 29.4703 101.843 29.4707C102.252 29.4711 102.375 29.6233 102.362 30.0399C102.337 30.8707 102.355 31.703 102.355 32.5346Z" fill="black"/>
<path d="M113.337 32.5044C113.236 33.1417 113.098 33.7717 112.923 34.3908C112.816 34.7705 112.594 35.1028 112.29 35.3361C111.986 35.5693 111.617 35.6907 111.241 35.6812C110.865 35.7064 110.492 35.5982 110.181 35.374C109.87 35.1498 109.64 34.8224 109.526 34.4443C109.058 33.1974 109.069 31.8073 109.558 30.5692C109.682 30.2043 109.914 29.8912 110.22 29.6767C110.527 29.4622 110.891 29.3579 111.259 29.3792C111.627 29.3648 111.989 29.4779 112.29 29.7012C112.591 29.9245 112.813 30.2456 112.924 30.6151C113.101 31.2345 113.239 31.8656 113.337 32.5044ZM110.154 32.529C110.254 33.0284 110.329 33.5643 110.474 34.0786C110.507 34.2585 110.605 34.4179 110.748 34.5232C110.891 34.6285 111.066 34.6715 111.239 34.6433C111.389 34.6071 111.53 34.539 111.654 34.4431C111.778 34.3472 111.883 34.2255 111.96 34.0856C112.341 33.1005 112.35 32 111.987 31.0077C111.939 30.8248 111.832 30.6649 111.685 30.5549C111.538 30.445 111.359 30.3916 111.179 30.4039C111.007 30.4069 110.84 30.471 110.706 30.5858C110.572 30.7007 110.479 30.8595 110.442 31.0368C110.311 31.5036 110.254 31.993 110.154 32.529Z" fill="black"/>
<path d="M114.36 32.55C114.36 31.7693 114.36 30.9886 114.36 30.2079C114.361 29.5225 114.639 29.3272 115.265 29.5534C115.383 29.6005 115.513 29.6037 115.633 29.5626C116.794 29.02 117.873 29.6043 117.95 30.927C118.033 32.3645 117.987 33.8105 117.99 35.2528C117.99 35.7089 117.646 35.547 117.418 35.576C117.125 35.6133 116.969 35.5053 116.973 35.1559C116.985 34.0189 116.979 32.8817 116.975 31.7446C116.973 31.5244 116.96 31.3045 116.934 31.0859C116.935 30.9873 116.916 30.8896 116.878 30.7995C116.84 30.7094 116.784 30.629 116.713 30.5639C116.643 30.4988 116.56 30.4505 116.47 30.4223C116.38 30.3942 116.286 30.3868 116.193 30.4007C115.984 30.4141 115.786 30.5063 115.637 30.6604C115.487 30.8145 115.396 31.0202 115.379 31.2397C115.372 32.4955 115.366 33.7516 115.382 35.0073C115.387 35.3929 115.327 35.5924 114.889 35.5936C114.447 35.5947 114.339 35.4232 114.352 34.9937C114.379 34.18 114.36 33.3647 114.36 32.55Z" fill="black"/>
<path d="M79.7393 34.6914C80.0268 34.4059 80.1598 34.2851 80.2801 34.1518C80.5 33.9082 80.665 33.9629 80.8858 34.186C81.0821 34.4016 81.3303 34.5571 81.6041 34.6359C81.7187 34.6465 81.8341 34.6283 81.9408 34.5827C82.0474 34.5372 82.1422 34.4657 82.2174 34.374C82.2678 34.2648 82.2938 34.1449 82.2933 34.0236C82.2929 33.9022 82.266 33.7826 82.2147 33.6738C82.042 33.412 81.8248 33.186 81.5741 33.0072C81.3474 32.8193 81.0779 32.6896 80.8436 32.5106C80.5325 32.3055 80.2922 32.0008 80.158 31.6413C80.0238 31.2818 80.0027 30.8865 80.0978 30.5135C80.1747 30.2167 80.335 29.9513 80.5577 29.752C80.7804 29.5526 81.0552 29.4287 81.346 29.3964C81.7272 29.3187 82.1222 29.3796 82.4661 29.5693C82.8101 29.7589 83.0825 30.0659 83.2386 30.4398C83.0982 30.5957 82.9389 30.7315 82.7648 30.8438C82.6139 30.8813 82.4559 30.8712 82.3105 30.815C82.2442 30.7991 82.1989 30.6975 82.1386 30.6415C82.0769 30.5689 82.0021 30.5099 81.9185 30.468C81.8349 30.4262 81.7443 30.4023 81.6518 30.3978C81.5593 30.3932 81.4669 30.4081 81.38 30.4416C81.2931 30.4751 81.2134 30.5265 81.1456 30.5928C81.0979 30.6723 81.0661 30.7612 81.0522 30.854C81.0382 30.9469 81.0423 31.0417 81.0643 31.1328C81.0863 31.2239 81.1257 31.3094 81.18 31.3839C81.2344 31.4585 81.3026 31.5207 81.3805 31.5667C81.7652 31.8137 82.133 32.0886 82.4813 32.3895C82.8267 32.7314 83.0917 33.1531 83.2557 33.6212C83.3615 33.9481 83.357 34.3033 83.2428 34.627C83.1287 34.9508 82.9119 35.2232 82.6291 35.3984C82.3243 35.5922 81.974 35.6924 81.6179 35.6876C81.2618 35.6828 80.914 35.5732 80.614 35.3713C80.3256 35.1585 80.0468 34.9311 79.7393 34.6914Z" fill="black"/>
<path d="M84.5648 30.5256C84.1714 30.5137 84.0011 30.3639 84.0042 29.9392C84.0072 29.5242 84.2241 29.468 84.565 29.4443C84.565 28.9531 84.5598 28.4825 84.5671 28.0121C84.571 27.7553 85.1556 27.2119 85.3686 27.2974C85.4286 27.3401 85.4784 27.3967 85.5143 27.4629C85.5502 27.5291 85.5712 27.6031 85.5756 27.6792C85.5983 28.2536 85.5852 28.8296 85.5852 29.355C85.9054 29.6967 86.6604 29.0888 86.6233 30.0184C86.5892 30.8728 85.915 30.259 85.5934 30.6167C85.5934 31.8239 85.5825 33.1096 85.6003 34.3949C85.6054 34.7636 85.8917 34.661 86.1128 34.6454C86.3044 34.6319 86.6105 34.3879 86.6321 34.8008C86.648 35.1034 86.712 35.4918 86.2623 35.6232C85.2012 35.9332 84.5774 35.4688 84.5673 34.3122C84.5563 33.0581 84.5648 31.8039 84.5648 30.5256Z" fill="black"/>
<path d="M104.878 30.6223C104.878 31.8119 104.874 33.0663 104.879 34.3206C104.881 34.7563 105.168 34.6754 105.431 34.6408C105.613 34.6168 105.897 34.4136 105.919 34.7809C105.936 35.0662 106.028 35.4849 105.614 35.5894C104.436 35.8862 103.875 35.5463 103.858 34.3332C103.841 33.0786 103.855 31.8236 103.855 30.5399C103.464 30.5098 103.196 30.3463 103.321 29.9134C103.41 29.7128 103.527 29.5268 103.667 29.3615L103.855 29.4374C103.855 28.9866 103.852 28.5357 103.856 28.0849C103.858 27.7763 104.373 27.2291 104.638 27.3017C104.743 27.3306 104.858 27.5631 104.864 27.7081C104.89 28.2794 104.875 28.8528 104.875 29.3553C105.219 29.6841 105.926 29.0988 105.913 29.9957C105.9 30.8565 105.233 30.2795 104.878 30.6223Z" fill="black"/>
<path d="M90.5863 29.4693C90.5147 29.7698 90.4713 29.9155 90.446 30.0647C90.38 30.4532 90.2477 30.6108 89.8225 30.45C89.7047 30.403 89.5775 30.3882 89.4528 30.407C89.3281 30.4259 89.21 30.4777 89.1096 30.5577C89.0092 30.6378 88.9297 30.7433 88.8787 30.8645C88.8277 30.9856 88.8068 31.1184 88.8179 31.2504C88.8119 32.5247 88.8009 33.7993 88.8244 35.0731C88.8322 35.4943 88.6788 35.5907 88.3142 35.5883C87.9578 35.5861 87.7878 35.5033 87.7926 35.0789C87.811 33.448 87.7994 31.8168 87.8 30.1857C87.8003 29.4998 87.9907 29.3512 88.6159 29.4902C88.818 29.5058 89.0212 29.4992 89.2221 29.4705C89.6566 29.4663 90.0911 29.4693 90.5863 29.4693Z" fill="black"/>
<path d="M78.8967 32.5318C78.8968 33.3968 78.8821 34.2621 78.903 35.1265C78.9133 35.552 78.6928 35.5818 78.3831 35.5839C78.0659 35.5862 77.8662 35.5369 77.8699 35.1192C77.8855 33.3894 77.8857 31.6595 77.8707 29.9295C77.8669 29.4734 78.1321 29.5182 78.4142 29.5092C78.709 29.4999 78.911 29.539 78.9024 29.9371C78.8837 30.8016 78.8966 31.6669 78.8967 32.5318Z" fill="black"/>
<path d="M91.0372 32.8547C91.0372 32.0067 91.0564 31.158 91.0293 30.311C91.0152 29.8712 91.2131 29.813 91.5583 29.8171C91.88 29.8209 92.0686 29.8671 92.0646 30.2826C92.048 31.9954 92.0478 33.7083 92.0641 35.4213C92.0677 35.8275 91.8885 35.8962 91.5609 35.8985C91.2156 35.9009 91.0169 35.8342 91.0299 35.3984C91.0551 34.5512 91.0373 33.7027 91.0372 32.8547Z" fill="black"/>
<path d="M108.074 32.5419C108.074 33.3899 108.056 34.2385 108.081 35.0857C108.094 35.5215 107.895 35.5879 107.55 35.5856C107.222 35.5835 107.044 35.5144 107.047 35.1084C107.062 33.3956 107.066 31.6825 107.046 29.9698C107.04 29.4992 107.288 29.5187 107.601 29.5051C107.955 29.4899 108.09 29.6139 108.081 29.9982C108.06 30.8456 108.074 31.694 108.074 32.5419Z" fill="black"/>
<path d="M79.0233 28.0354C79.03 28.1239 79.0195 28.2128 78.9926 28.2969C78.9656 28.3809 78.9227 28.4584 78.8665 28.5245C78.8102 28.5906 78.7418 28.644 78.6654 28.6815C78.5889 28.7189 78.5061 28.7397 78.4218 28.7424C78.2459 28.7441 78.0765 28.6723 77.9509 28.5428C77.8252 28.4133 77.7535 28.2367 77.7515 28.0516C77.7495 27.8666 77.8174 27.6882 77.9402 27.5558C78.063 27.4233 78.2308 27.3475 78.4067 27.345C78.491 27.3452 78.5744 27.3636 78.6517 27.3989C78.7291 27.4342 78.7987 27.4858 78.8564 27.5504C78.9142 27.6151 78.9587 27.6914 78.9874 27.7748C79.0161 27.8582 79.0283 27.9469 79.0233 28.0354Z" fill="black"/>
<path d="M91.9741 28.7432C91.8857 28.7462 91.7978 28.7298 91.7158 28.6948C91.6339 28.6598 91.5599 28.6072 91.4986 28.5402C91.4372 28.4732 91.39 28.3934 91.3598 28.306C91.3297 28.2186 91.3174 28.1254 91.3236 28.0327C91.3215 27.9426 91.3368 27.853 91.3685 27.7693C91.4002 27.6856 91.4476 27.6095 91.5079 27.5455C91.5683 27.4816 91.6403 27.4311 91.7196 27.3972C91.7989 27.3632 91.884 27.3465 91.9696 27.348C92.0552 27.3495 92.1397 27.3691 92.2179 27.4058C92.2962 27.4425 92.3666 27.4954 92.4249 27.5614C92.4832 27.6274 92.5282 27.7052 92.5572 27.7899C92.5862 27.8747 92.5987 27.9647 92.5938 28.0547C92.5985 28.1433 92.5859 28.232 92.5569 28.3153C92.5278 28.3987 92.4829 28.4749 92.4249 28.5393C92.3669 28.6038 92.297 28.6551 92.2195 28.6901C92.142 28.7252 92.0585 28.7432 91.9741 28.7432Z" fill="black"/>
<path d="M108.199 28.0665C108.203 28.1553 108.189 28.2439 108.159 28.3268C108.129 28.4098 108.083 28.4853 108.024 28.5488C107.965 28.6122 107.894 28.6622 107.816 28.6957C107.738 28.7292 107.654 28.7454 107.569 28.7434C107.482 28.7404 107.396 28.7193 107.317 28.6814C107.237 28.6435 107.166 28.5895 107.106 28.5224C107.046 28.4554 107 28.3767 106.969 28.2907C106.938 28.2048 106.924 28.1133 106.927 28.0216C106.93 27.9298 106.95 27.8395 106.986 27.7559C107.022 27.6723 107.073 27.597 107.137 27.5342C107.201 27.4715 107.275 27.4225 107.357 27.3902C107.439 27.3579 107.526 27.3428 107.613 27.3458C107.697 27.3507 107.78 27.3735 107.855 27.4128C107.931 27.452 107.998 27.507 108.053 27.5744C108.107 27.6417 108.149 27.72 108.174 27.8046C108.199 27.8892 108.208 27.9783 108.199 28.0665Z" fill="black"/>
</svg>
