<svg width="180" height="63" viewBox="0 0 180 63" fill="none" xmlns="http://www.w3.org/2000/svg">
<rect x="2" y="2" width="176" height="58.2156" rx="29.1078" fill="white"/>
<rect x="2" y="2" width="176" height="58.2156" rx="29.1078" stroke="white" stroke-width="4"/>
<path d="M149 26.6295C148.929 27.2851 148.873 27.9426 148.785 28.5961C148.48 30.874 147.716 32.9238 145.749 34.3469C144.596 35.1475 143.26 35.6551 141.86 35.8246C139.307 36.257 136.686 36.109 134.199 35.3919C132.233 34.7893 130.563 33.7468 129.745 31.7909C128.476 28.7556 129.1 24.4816 133.572 22.923C135.051 22.4146 136.598 22.1262 138.163 22.0674C139.274 22.0195 140.388 22.0479 141.5 22.0396C141.609 22.0388 141.717 22.0193 141.818 22.0093C142.115 20.2777 140.956 18.8213 139.05 18.5872C136.127 18.227 133.166 18.8519 130.649 20.3605C130.483 20.4561 130.315 20.5483 130.101 20.6686C129.814 19.578 129.871 18.427 130.264 17.3689C130.877 15.6726 132.185 14.6716 133.847 14.1386C136.848 13.1285 140.089 13.0477 143.138 13.9072C146.308 14.8142 147.954 17.11 148.58 20.1888C148.766 21.1036 148.798 22.0488 148.905 22.9794C148.929 23.1147 148.96 23.2484 149 23.38V26.6295ZM142.089 26.4341C141.691 26.3956 141.339 26.3366 140.987 26.3329C140.277 26.3055 139.566 26.319 138.858 26.3733C138.298 26.4331 137.749 26.5688 137.227 26.7766C136.799 26.9363 136.437 27.2311 136.197 27.6151C135.957 27.9991 135.853 28.4507 135.9 28.8992C135.891 29.3514 136.041 29.7927 136.326 30.1475C136.61 30.5023 137.011 30.7484 137.46 30.8436C138.099 30.998 138.758 31.0624 139.416 31.0347C139.93 31.0302 140.43 30.8711 140.85 30.5789C141.27 30.2866 141.589 29.875 141.765 29.3991C142.125 28.4535 142.236 27.4336 142.089 26.4341Z" fill="#017D4B"/>
<path d="M51.6627 35.4661C50.0449 35.4265 48.4727 35.6461 46.9434 35.1935C45.3145 34.7115 44.4422 33.3865 44.4355 31.4203C44.4256 28.4895 44.4382 25.5586 44.4268 22.6278C44.4297 22.2146 44.3832 21.8025 44.2884 21.4C44.1753 20.8313 43.8689 20.3176 43.4198 19.9437C42.9707 19.5698 42.4057 19.3581 41.8181 19.3435C40.2001 19.285 39.1196 19.9014 38.6879 21.2065C38.5339 21.6906 38.4562 22.1952 38.4573 22.7026C38.4394 26.7483 38.4474 30.7942 38.4471 34.8401C38.447 35.4684 38.4453 35.4862 37.8133 35.4662C36.621 35.4825 35.4287 35.4244 34.2438 35.2922C33.342 35.1678 32.5185 34.7198 31.9308 34.034C31.3431 33.3482 31.0325 32.4729 31.0586 31.5754C31.0265 28.4859 30.9331 25.3903 31.0815 22.3073C31.3221 17.3056 34.6485 13.9376 39.5339 13.4402C40.9474 13.279 42.3789 13.3677 43.7608 13.7022C44.6914 13.9316 45.5661 14.3422 46.3333 14.9097C47.1006 15.4773 47.7451 16.1904 48.2288 17.0071C48.3032 16.9575 48.369 16.9354 48.3998 16.8902C49.7468 14.9151 51.6853 13.8836 54.0152 13.5124C56.2723 13.0873 58.6089 13.4432 60.6306 14.5201C63.0264 15.8316 64.3136 17.9363 64.8215 20.5259C64.9977 21.4478 65.0881 22.3837 65.0916 23.3218C65.1209 27.1763 65.0967 31.0312 65.1137 34.8858C65.1157 35.3407 64.9969 35.5067 64.5202 35.4779C63.2982 35.4038 62.0554 35.4823 60.8546 35.2928C58.7507 34.9607 57.6228 33.5286 57.6176 31.4082C57.6106 28.5092 57.619 25.6102 57.6117 22.7113C57.6122 22.3619 57.5804 22.0132 57.5166 21.6696C57.2188 20.1106 56.2062 19.3277 54.5361 19.3424C53.8579 19.3323 53.1999 19.5693 52.688 20.0081C52.1762 20.4468 51.8466 21.0564 51.7625 21.7199C51.6999 22.0802 51.6679 22.445 51.6668 22.8106C51.6602 26.8405 51.6588 30.8704 51.6627 34.9003V35.4661Z" fill="#017D4B"/>
<path d="M78.2034 13.3678C82.1592 13.4238 85.4958 14.7599 87.8144 18.0508C89.3867 20.3215 90.0815 23.0724 89.7729 25.8049C89.6186 28.4472 88.488 30.9422 86.5948 32.8186C84.7016 34.6949 82.1769 35.8226 79.4978 35.9885C77.1591 36.2543 74.792 35.8565 72.6746 34.842C69.2634 33.1492 67.3268 30.3644 66.7353 26.6921C66.2369 23.5979 66.7591 20.6601 68.5887 18.0423C70.5093 15.2941 73.2378 13.8562 76.5621 13.4515C76.8341 13.4184 77.1069 13.3846 77.3804 13.3708C77.654 13.357 77.929 13.3678 78.2034 13.3678ZM82.5367 24.8542C82.5827 23.6688 82.359 22.4884 81.8819 21.3995C81.5939 20.6813 81.0897 20.0673 80.4372 19.64C79.7847 19.2127 79.0152 18.9926 78.2321 19.0093C77.4479 18.9645 76.6695 19.1655 76.0083 19.5837C75.3471 20.0018 74.8372 20.6156 74.5515 21.337C74.0583 22.4235 73.8046 23.6009 73.8072 24.7913C73.8098 25.9816 74.0686 27.1579 74.5665 28.2423C74.8542 28.9452 75.3573 29.542 76.0057 29.9494C76.654 30.3567 77.4152 30.5543 78.1829 30.5144C78.9489 30.5451 79.7064 30.347 80.3563 29.9461C81.0061 29.5451 81.518 28.96 81.8249 28.2674C82.3269 27.1993 82.5706 26.0309 82.5367 24.8542Z" fill="#FE003E"/>
<path d="M108.381 20.5214C107.357 20.1294 106.422 19.6978 105.443 19.4126C103.551 18.8509 101.558 18.7032 99.6021 18.9796C99.157 19.0466 98.7328 19.2111 98.3605 19.4609C98.173 19.5685 98.0212 19.7276 97.9236 19.9187C97.826 20.1098 97.7869 20.3248 97.8109 20.5375C97.8349 20.7501 97.9211 20.9513 98.059 21.1165C98.1969 21.2818 98.3805 21.404 98.5875 21.4683C99.4689 21.7123 100.363 21.9111 101.265 22.0638C102.503 22.3458 103.764 22.5624 104.966 22.9552C107.176 23.6776 108.526 25.1775 108.809 27.5167C109.153 30.3608 108.384 32.7529 105.658 34.4875C104.688 35.0953 103.61 35.515 102.481 35.724C100.01 36.2531 97.4453 36.1752 95.012 35.4972C92.5246 34.7683 91.3032 33.1188 91.2516 30.5631C91.2382 29.8999 91.2495 29.2362 91.2495 28.6409C92.3862 29.1273 93.4119 29.6686 94.5019 30.0098C96.3377 30.5955 98.2933 30.7179 100.189 30.3657C100.569 30.2951 100.929 30.1459 101.245 29.9278C101.432 29.8067 101.583 29.6378 101.681 29.4393C101.778 29.2407 101.82 29.0197 101.801 28.7997C101.782 28.5796 101.703 28.3688 101.573 28.1893C101.442 28.0099 101.265 27.8686 101.06 27.7803C100.253 27.5161 99.4254 27.3182 98.5855 27.1886C97.4058 26.9361 96.2034 26.7663 95.0446 26.4431C91.9921 25.5917 90.6738 23.7779 90.7513 20.6526C90.8171 17.9984 92.2532 16.1819 94.4766 14.9036C96.8308 13.55 99.4194 13.1782 102.09 13.4313C103.195 13.5285 104.283 13.7651 105.327 14.1353C107.272 14.846 108.272 16.3297 108.375 18.3732C108.411 19.0941 108.381 19.8183 108.381 20.5214Z" fill="#017D4B"/>
<path d="M127.561 20.4651C126.272 20.0291 125.079 19.5411 123.841 19.2281C122.195 18.808 120.48 18.7222 118.799 18.9757C118.354 19.0419 117.929 19.202 117.552 19.445C117.358 19.5509 117.201 19.7108 117.099 19.9046C116.997 20.0985 116.955 20.3177 116.979 20.5347C117.003 20.7518 117.092 20.957 117.234 21.1247C117.375 21.2923 117.564 21.415 117.777 21.4772C118.621 21.7648 119.533 21.8539 120.407 22.0641C121.809 22.3446 123.194 22.7019 124.556 23.1344C126.854 23.9651 127.879 25.7555 128.045 28.1098C128.352 32.4721 125.384 34.7716 122.238 35.5813C119.695 36.2358 117.025 36.2384 114.482 35.589C111.833 34.9307 110.52 33.2786 110.439 30.5859C110.418 29.9137 110.461 29.2397 110.476 28.4732C112.714 30.0902 115.152 30.5612 117.716 30.5343C118.424 30.5095 119.127 30.412 119.815 30.2435C120.072 30.1956 120.31 30.0764 120.501 29.8998C120.692 29.7231 120.828 29.4965 120.893 29.2464C120.951 29.0906 120.975 28.9246 120.963 28.7592C120.952 28.5937 120.906 28.4325 120.827 28.2857C120.749 28.139 120.641 28.01 120.509 27.9071C120.377 27.8042 120.225 27.7296 120.062 27.6882C119.317 27.4502 118.525 27.3556 117.757 27.1859C116.344 26.8737 114.9 26.651 113.528 26.2129C111.222 25.4767 110.075 23.8001 109.932 21.416C109.742 18.2595 111.296 16.1425 113.983 14.7188C116.254 13.5157 118.72 13.2229 121.262 13.4141C122.457 13.4692 123.631 13.7382 124.729 14.208C125.567 14.5602 126.283 15.1478 126.785 15.8977C127.288 16.6476 127.555 17.5266 127.555 18.4254C127.591 19.1319 127.561 19.8416 127.561 20.4651Z" fill="#017D4B"/>
<path d="M106.518 42.6665C106.518 42.1119 106.516 41.6058 106.519 41.0997C106.521 40.7831 106.995 40.2668 107.286 40.2972C107.338 40.3186 107.384 40.3534 107.421 40.3984C107.457 40.4433 107.482 40.4971 107.493 40.5548C107.521 40.8574 107.505 41.1643 107.505 41.4696C107.506 43.6067 107.506 45.7438 107.505 47.8808C107.505 48.5216 107.209 48.7206 106.623 48.4982C106.494 48.4474 106.352 48.4463 106.222 48.4951C105.292 48.947 104.39 48.6171 104.058 47.6004C103.61 46.2787 103.616 44.8333 104.076 43.5159C104.462 42.403 105.287 42.1214 106.518 42.6665ZM106.518 45.5532C106.518 45.0947 106.514 44.6362 106.519 44.1777C106.523 43.6687 106.165 43.5353 105.804 43.4298C105.728 43.3976 105.646 43.3827 105.564 43.3859C105.482 43.3892 105.401 43.4106 105.328 43.4487C105.254 43.4868 105.189 43.5409 105.137 43.6072C105.084 43.6736 105.045 43.7509 105.023 43.834C104.672 44.9006 104.659 46.0582 104.987 47.1331C105.007 47.2253 105.045 47.3121 105.099 47.3881C105.152 47.4641 105.22 47.5278 105.298 47.5752C105.376 47.6225 105.462 47.6526 105.552 47.6635C105.641 47.6743 105.731 47.6658 105.818 47.6384C106.019 47.6211 106.206 47.5206 106.337 47.359C106.468 47.1974 106.533 46.9877 106.518 46.7758C106.519 46.3683 106.518 45.9608 106.518 45.5532Z" fill="black"/>
<path d="M125.825 42.7301C125.979 42.644 126.059 42.5955 126.142 42.5534C126.322 42.4432 126.522 42.3754 126.729 42.3545C126.936 42.3336 127.145 42.3602 127.342 42.4325C127.538 42.5047 127.717 42.6209 127.867 42.773C128.017 42.9251 128.133 43.1095 128.208 43.3135C128.754 44.7137 128.752 46.2842 128.202 47.6825C127.839 48.6373 127.001 48.892 126.068 48.5111C125.815 48.4655 125.555 48.4791 125.307 48.5509C124.922 48.5981 124.802 48.4228 124.804 48.0274C124.816 45.7175 124.809 43.4075 124.811 41.0976C124.812 40.7788 125.297 40.2575 125.589 40.3023C125.682 40.3165 125.811 40.5252 125.815 40.6489C125.837 41.3098 125.825 41.972 125.825 42.7301ZM125.826 45.4844C125.826 45.9424 125.836 46.4008 125.824 46.8585C125.81 47.3658 126.148 47.5189 126.513 47.6289C126.589 47.6621 126.67 47.6784 126.752 47.6766C126.834 47.6749 126.915 47.6552 126.989 47.6187C127.063 47.5823 127.13 47.53 127.183 47.4651C127.237 47.4002 127.278 47.3242 127.302 47.2419C127.685 46.1506 127.692 44.9526 127.322 43.8566C127.297 43.7695 127.256 43.6888 127.2 43.6195C127.144 43.5502 127.075 43.4939 126.998 43.4541C126.92 43.4143 126.835 43.392 126.749 43.3884C126.663 43.3849 126.577 43.4003 126.497 43.4337C126.134 43.5438 125.794 43.695 125.822 44.2124C125.844 44.6351 125.826 45.0603 125.826 45.4844Z" fill="black"/>
<path d="M133.355 45.5346C133.355 46.3153 133.355 47.0961 133.355 47.8768C133.355 48.5341 133.092 48.7195 132.479 48.5259C132.331 48.477 132.172 48.4807 132.026 48.5366C130.974 49.0311 129.894 48.4713 129.806 47.254C129.699 45.7858 129.738 44.3057 129.721 42.8307C129.716 42.3919 130.042 42.4986 130.283 42.4849C130.539 42.4703 130.764 42.4781 130.76 42.8678C130.747 44.0557 130.753 45.2439 130.757 46.4319C130.755 46.6351 130.769 46.8381 130.798 47.0389C130.803 47.133 130.827 47.2248 130.869 47.3084C130.91 47.392 130.967 47.4656 131.038 47.5242C131.108 47.5828 131.189 47.6252 131.275 47.6487C131.362 47.6721 131.453 47.676 131.541 47.6602C131.742 47.6495 131.933 47.5627 132.078 47.4159C132.223 47.269 132.313 47.0719 132.331 46.8609C132.339 45.588 132.347 44.3148 132.327 43.0423C132.32 42.6296 132.433 42.4703 132.843 42.4707C133.252 42.4711 133.375 42.6233 133.362 43.0399C133.337 43.8707 133.355 44.703 133.355 45.5346Z" fill="black"/>
<path d="M144.337 45.5044C144.236 46.1417 144.098 46.7717 143.923 47.3908C143.816 47.7705 143.594 48.1028 143.29 48.3361C142.986 48.5693 142.617 48.6907 142.241 48.6812C141.865 48.7064 141.492 48.5982 141.181 48.374C140.87 48.1498 140.64 47.8224 140.526 47.4443C140.058 46.1974 140.069 44.8073 140.558 43.5692C140.682 43.2043 140.914 42.8912 141.22 42.6767C141.527 42.4622 141.891 42.3579 142.259 42.3792C142.627 42.3648 142.989 42.4779 143.29 42.7012C143.591 42.9245 143.813 43.2456 143.924 43.6151C144.101 44.2345 144.239 44.8656 144.337 45.5044ZM141.154 45.529C141.254 46.0284 141.329 46.5643 141.474 47.0786C141.507 47.2585 141.605 47.4179 141.748 47.5232C141.891 47.6285 142.066 47.6715 142.239 47.6433C142.389 47.6071 142.53 47.539 142.654 47.4431C142.778 47.3472 142.883 47.2255 142.96 47.0856C143.341 46.1005 143.35 45 142.987 44.0077C142.939 43.8248 142.832 43.6649 142.685 43.5549C142.538 43.445 142.359 43.3916 142.179 43.4039C142.007 43.4069 141.84 43.471 141.706 43.5858C141.572 43.7007 141.479 43.8595 141.442 44.0368C141.311 44.5036 141.254 44.993 141.154 45.529Z" fill="black"/>
<path d="M145.36 45.55C145.36 44.7693 145.36 43.9886 145.36 43.2079C145.361 42.5225 145.639 42.3272 146.265 42.5534C146.383 42.6005 146.513 42.6037 146.633 42.5626C147.794 42.02 148.873 42.6043 148.95 43.927C149.033 45.3645 148.987 46.8105 148.99 48.2528C148.99 48.7089 148.646 48.547 148.418 48.576C148.125 48.6133 147.97 48.5053 147.973 48.1559C147.985 47.0189 147.979 45.8817 147.975 44.7446C147.973 44.5244 147.96 44.3045 147.934 44.0859C147.935 43.9873 147.916 43.8896 147.878 43.7995C147.84 43.7094 147.784 43.629 147.713 43.5639C147.643 43.4988 147.56 43.4505 147.47 43.4223C147.38 43.3942 147.286 43.3868 147.193 43.4007C146.984 43.4141 146.787 43.5063 146.637 43.6604C146.487 43.8145 146.396 44.0202 146.379 44.2397C146.372 45.4955 146.366 46.7516 146.382 48.0073C146.387 48.3929 146.327 48.5924 145.889 48.5936C145.447 48.5947 145.339 48.4232 145.353 47.9937C145.379 47.18 145.36 46.3647 145.36 45.55Z" fill="black"/>
<path d="M110.739 47.6914C111.027 47.4059 111.16 47.2851 111.28 47.1518C111.5 46.9082 111.665 46.9629 111.886 47.186C112.082 47.4016 112.33 47.5571 112.604 47.6359C112.719 47.6465 112.834 47.6283 112.941 47.5827C113.047 47.5372 113.142 47.4657 113.217 47.374C113.268 47.2648 113.294 47.1449 113.293 47.0236C113.293 46.9022 113.266 46.7826 113.215 46.6738C113.042 46.412 112.825 46.186 112.574 46.0072C112.347 45.8193 112.078 45.6896 111.844 45.5106C111.533 45.3055 111.292 45.0008 111.158 44.6413C111.024 44.2818 111.003 43.8865 111.098 43.5135C111.175 43.2167 111.335 42.9513 111.558 42.752C111.78 42.5526 112.055 42.4287 112.346 42.3964C112.727 42.3187 113.122 42.3796 113.466 42.5693C113.81 42.7589 114.082 43.0659 114.239 43.4398C114.098 43.5957 113.939 43.7315 113.765 43.8438C113.614 43.8813 113.456 43.8712 113.31 43.815C113.244 43.7991 113.199 43.6975 113.139 43.6415C113.077 43.5689 113.002 43.5099 112.919 43.468C112.835 43.4262 112.744 43.4023 112.652 43.3978C112.559 43.3932 112.467 43.4081 112.38 43.4416C112.293 43.4751 112.213 43.5265 112.146 43.5928C112.098 43.6723 112.066 43.7612 112.052 43.854C112.038 43.9469 112.042 44.0417 112.064 44.1328C112.086 44.2239 112.126 44.3094 112.18 44.3839C112.234 44.4585 112.303 44.5207 112.381 44.5667C112.765 44.8137 113.133 45.0886 113.481 45.3895C113.827 45.7314 114.092 46.1531 114.256 46.6212C114.361 46.9481 114.357 47.3033 114.243 47.627C114.129 47.9508 113.912 48.2232 113.629 48.3984C113.324 48.5922 112.974 48.6924 112.618 48.6876C112.262 48.6828 111.914 48.5732 111.614 48.3713C111.326 48.1585 111.047 47.9311 110.739 47.6914Z" fill="black"/>
<path d="M115.565 43.5256C115.171 43.5137 115.001 43.3639 115.004 42.9392C115.007 42.5242 115.224 42.468 115.565 42.4443C115.565 41.9531 115.56 41.4825 115.567 41.0121C115.571 40.7553 116.156 40.2119 116.369 40.2974C116.429 40.3401 116.478 40.3967 116.514 40.4629C116.55 40.5291 116.571 40.6031 116.576 40.6792C116.598 41.2536 116.585 41.8296 116.585 42.355C116.905 42.6967 117.66 42.0888 117.623 43.0184C117.589 43.8728 116.915 43.259 116.593 43.6167C116.593 44.8239 116.582 46.1096 116.6 47.3949C116.605 47.7636 116.892 47.661 117.113 47.6454C117.304 47.6319 117.611 47.3879 117.632 47.8008C117.648 48.1034 117.712 48.4918 117.262 48.6232C116.201 48.9332 115.577 48.4688 115.567 47.3122C115.556 46.0581 115.565 44.8039 115.565 43.5256Z" fill="black"/>
<path d="M135.878 43.6223C135.878 44.8119 135.874 46.0663 135.879 47.3206C135.881 47.7563 136.168 47.6754 136.431 47.6408C136.613 47.6168 136.897 47.4136 136.919 47.7809C136.936 48.0662 137.028 48.4849 136.614 48.5894C135.436 48.8862 134.875 48.5463 134.858 47.3332C134.841 46.0786 134.855 44.8236 134.855 43.5399C134.464 43.5098 134.196 43.3463 134.321 42.9134C134.41 42.7128 134.527 42.5268 134.667 42.3615L134.855 42.4374C134.855 41.9866 134.852 41.5357 134.856 41.0849C134.858 40.7763 135.373 40.2291 135.638 40.3017C135.743 40.3306 135.858 40.5631 135.864 40.7081C135.89 41.2794 135.875 41.8528 135.875 42.3553C136.219 42.6841 136.926 42.0988 136.913 42.9957C136.9 43.8565 136.233 43.2795 135.878 43.6223Z" fill="black"/>
<path d="M121.586 42.4693C121.515 42.7698 121.471 42.9155 121.446 43.0647C121.38 43.4532 121.248 43.6108 120.823 43.45C120.705 43.403 120.578 43.3882 120.453 43.407C120.328 43.4259 120.21 43.4777 120.11 43.5577C120.009 43.6378 119.93 43.7433 119.879 43.8645C119.828 43.9856 119.807 44.1184 119.818 44.2504C119.812 45.5247 119.801 46.7993 119.825 48.0731C119.832 48.4943 119.679 48.5907 119.314 48.5883C118.958 48.5861 118.788 48.5033 118.793 48.0789C118.811 46.448 118.8 44.8168 118.8 43.1857C118.8 42.4998 118.991 42.3512 119.616 42.4902C119.818 42.5058 120.021 42.4992 120.222 42.4705C120.657 42.4663 121.091 42.4693 121.586 42.4693Z" fill="black"/>
<path d="M109.897 45.5318C109.897 46.3968 109.882 47.2621 109.903 48.1265C109.913 48.552 109.693 48.5818 109.383 48.5839C109.066 48.5862 108.866 48.5369 108.87 48.1192C108.885 46.3894 108.886 44.6595 108.871 42.9295C108.867 42.4734 109.132 42.5182 109.414 42.5092C109.709 42.4999 109.911 42.539 109.902 42.9371C109.884 43.8016 109.897 44.6669 109.897 45.5318Z" fill="black"/>
<path d="M122.037 45.8547C122.037 45.0067 122.056 44.158 122.029 43.311C122.015 42.8712 122.213 42.813 122.558 42.8171C122.88 42.8209 123.069 42.8671 123.065 43.2826C123.048 44.9954 123.048 46.7083 123.064 48.4213C123.068 48.8275 122.889 48.8962 122.561 48.8985C122.216 48.9009 122.017 48.8342 122.03 48.3984C122.055 47.5512 122.037 46.7027 122.037 45.8547Z" fill="black"/>
<path d="M139.074 45.5419C139.074 46.3899 139.056 47.2385 139.081 48.0857C139.094 48.5215 138.895 48.5879 138.55 48.5856C138.222 48.5835 138.044 48.5144 138.047 48.1084C138.062 46.3956 138.066 44.6825 138.046 42.9698C138.04 42.4992 138.288 42.5187 138.601 42.5051C138.955 42.4899 139.09 42.6139 139.081 42.9982C139.06 43.8456 139.074 44.694 139.074 45.5419Z" fill="black"/>
<path d="M110.023 41.0354C110.03 41.1239 110.02 41.2128 109.993 41.2969C109.966 41.3809 109.923 41.4584 109.866 41.5245C109.81 41.5906 109.742 41.644 109.665 41.6815C109.589 41.7189 109.506 41.7397 109.422 41.7424C109.246 41.7441 109.077 41.6723 108.951 41.5428C108.825 41.4133 108.754 41.2367 108.752 41.0516C108.75 40.8666 108.817 40.6882 108.94 40.5558C109.063 40.4233 109.231 40.3475 109.407 40.345C109.491 40.3452 109.574 40.3636 109.652 40.3989C109.729 40.4342 109.799 40.4858 109.856 40.5504C109.914 40.6151 109.959 40.6914 109.987 40.7748C110.016 40.8582 110.028 40.9469 110.023 41.0354Z" fill="black"/>
<path d="M122.974 41.7432C122.886 41.7462 122.798 41.7298 122.716 41.6948C122.634 41.6598 122.56 41.6072 122.498 41.5402C122.437 41.4732 122.39 41.3934 122.36 41.306C122.33 41.2186 122.317 41.1254 122.323 41.0327C122.321 40.9426 122.337 40.853 122.368 40.7693C122.4 40.6856 122.447 40.6095 122.508 40.5455C122.568 40.4816 122.64 40.4311 122.719 40.3972C122.799 40.3632 122.884 40.3465 122.969 40.348C123.055 40.3495 123.14 40.3691 123.218 40.4058C123.296 40.4425 123.366 40.4954 123.425 40.5614C123.483 40.6274 123.528 40.7052 123.557 40.7899C123.586 40.8747 123.599 40.9647 123.594 41.0547C123.598 41.1433 123.586 41.232 123.557 41.3153C123.528 41.3987 123.483 41.4749 123.425 41.5393C123.367 41.6038 123.297 41.6551 123.219 41.6901C123.142 41.7252 123.058 41.7432 122.974 41.7432Z" fill="black"/>
<path d="M139.2 41.0665C139.203 41.1553 139.19 41.2439 139.159 41.3268C139.129 41.4098 139.083 41.4853 139.024 41.5488C138.965 41.6122 138.894 41.6622 138.816 41.6957C138.738 41.7292 138.654 41.7454 138.569 41.7434C138.482 41.7404 138.396 41.7193 138.317 41.6814C138.237 41.6435 138.166 41.5895 138.106 41.5224C138.046 41.4554 138 41.3767 137.969 41.2907C137.938 41.2048 137.924 41.1133 137.927 41.0216C137.93 40.9298 137.95 40.8395 137.986 40.7559C138.022 40.6723 138.073 40.597 138.137 40.5342C138.201 40.4715 138.276 40.4225 138.357 40.3902C138.439 40.3579 138.526 40.3428 138.613 40.3458C138.697 40.3507 138.78 40.3735 138.855 40.4128C138.931 40.452 138.998 40.507 139.053 40.5744C139.108 40.6417 139.149 40.72 139.174 40.8046C139.199 40.8892 139.208 40.9783 139.2 41.0665Z" fill="black"/>
</svg>
